
<svg width="22" height="22" viewBox="0 0 22 22" fill="none" xmlns="http://www.w3.org/2000/svg">
<path d="M11 0C4.92502 0 0 4.92502 0 11C0 17.075 4.92502 22 11 22C17.075 22 22 17.075 22 11C22 4.92502 17.075 0 11 0ZM11.5636 2.30518C11.7704 2.3008 11.9887 2.31745 12.1754 2.43139C12.3892 2.56199 12.604 2.69259 12.8047 2.84247C12.9826 2.9757 13.0913 3.1843 13.2859 3.30701C13.3446 3.3447 13.3394 3.45777 13.3078 3.5051C13.1947 3.67777 13.2386 3.90478 13.1018 4.06255C13.0405 4.13267 13.0563 4.20805 13.072 4.2843C13.0975 4.40701 13.1246 4.52884 13.1535 4.65068C13.1842 4.78128 13.1807 4.8812 13.0002 4.84351C12.9458 4.83737 12.8722 4.85227 12.8406 4.82247C12.5873 4.58494 12.2332 4.41753 12.1333 4.0643C12.0334 3.71195 11.752 3.54191 11.5294 3.30876C11.4689 3.24566 11.3804 3.27546 11.3041 3.27108C11.0596 3.25705 11.0105 3.14661 11.0929 2.93275C11.1473 2.79163 11.2025 2.66542 11.3103 2.56112C11.3988 2.47522 11.4382 2.30518 11.5636 2.30167V2.30518ZM11.6381 4.82422C11.632 4.92239 11.6162 4.96359 11.5014 4.94606C11.2875 4.91275 11.1639 4.76024 11.0254 4.62351C10.9939 4.59283 11.0026 4.55602 11.0096 4.51482C11.064 4.17562 10.8852 3.96701 10.5381 3.96877C10.3961 3.96877 10.241 3.9749 10.2708 3.77857C10.2935 3.62606 10.4014 3.55243 10.581 3.58048C10.8869 3.62781 11.1297 3.75402 11.2761 4.03363C11.3357 4.14757 11.447 4.19315 11.5452 4.2545C11.6381 4.31235 11.7275 4.37721 11.6767 4.49466C11.6276 4.60773 11.5426 4.43944 11.4733 4.5043C11.504 4.62 11.6469 4.6796 11.6381 4.82422ZM10.4408 2.70661C10.7993 2.54534 10.8265 2.54183 11.1174 2.62247C11.0394 2.77673 10.9535 2.92574 10.8869 3.08175C10.8142 3.25179 10.6976 3.29211 10.5311 3.24215C10.4539 3.21936 10.3628 3.21323 10.4592 3.10104C10.5206 3.03004 10.4443 3.01602 10.404 2.98446C10.2594 2.87227 10.2725 2.78199 10.4408 2.70661ZM10.2041 3.19394C10.2331 3.18343 10.2997 3.20271 10.3067 3.22287C10.3637 3.38327 10.489 3.39378 10.6284 3.38765C10.6985 3.38414 10.7292 3.43761 10.723 3.49546C10.716 3.56645 10.652 3.53052 10.6029 3.53928C10.4601 3.48056 10.2497 3.53665 10.1892 3.31139C10.1787 3.2702 10.1367 3.21761 10.2024 3.19394H10.2041ZM9.36709 2.9459C9.43458 2.94327 9.52486 2.87315 9.56343 2.99147C9.5792 3.04056 9.55203 3.11769 9.6204 3.12996C9.68 3.14048 9.7808 3.07649 9.76064 3.20008C9.74661 3.28422 9.64845 3.26319 9.54765 3.27108C9.39777 3.29912 9.36359 3.14749 9.30136 3.03618C9.26805 2.97657 9.31888 2.94677 9.36797 2.94502L9.36709 2.9459ZM9.65809 3.85131C9.66773 4.00032 9.57131 4.00558 9.48805 4.00295C9.16638 3.99506 8.95865 3.84869 8.96128 3.63745C8.96303 3.45689 9.12781 3.42972 9.23825 3.40956C9.43984 3.37275 9.66072 3.6357 9.65809 3.85131ZM8.77633 3.37275C8.80789 3.19657 8.95865 3.15538 9.08048 3.08789C9.17163 3.11681 9.25928 3.17116 9.24 3.24741C9.19267 3.43147 8.99984 3.41044 8.86311 3.4639C8.79649 3.4902 8.76319 3.44637 8.77633 3.37275ZM16.2143 14.016C16.1915 14.0563 16.1582 14.0923 16.1249 14.1247C15.9347 14.3123 15.8251 14.5218 15.812 14.8049C15.7997 15.0783 15.6524 15.3273 15.5227 15.5683C15.4394 15.7225 15.3106 15.8216 15.1178 15.854C14.9092 15.8882 14.7374 16.032 14.5472 16.1249C14.499 16.1485 14.4841 16.1888 14.4735 16.2379C14.3701 16.7428 13.917 16.9768 13.6146 17.3257C13.512 17.4449 13.3324 17.2853 13.172 17.3257C13.172 17.444 13.3069 17.5386 13.2096 17.6877C13.1071 17.8454 12.9642 17.841 12.8249 17.8673C12.7074 17.8892 12.5838 17.8831 12.5663 18.0435C12.5663 18.0505 12.5593 18.0637 12.5567 18.0637C12.2218 18.0549 12.2753 18.4204 12.0851 18.5571C12.0062 18.6141 11.8537 18.679 12.0176 18.8446C12.0921 18.92 11.9282 19.0041 11.8581 19.0611C11.7056 19.1847 11.6442 19.3127 11.7205 19.5081C11.7529 19.5914 11.8371 19.6063 11.873 19.6755C11.5724 19.7395 11.44 19.6659 11.2831 19.417C11.1385 19.1865 11.0894 18.9673 11.2209 18.7158C11.3068 18.551 11.2989 18.3617 11.298 18.1837C11.2954 17.8253 11.3673 17.4826 11.4821 17.1469C11.6591 16.6306 11.7249 16.0933 11.7924 15.556C11.8081 15.4316 11.7888 15.3465 11.6731 15.2825C11.163 15.0029 10.8352 14.5647 10.6135 14.0379C10.6012 14.009 10.5872 13.9801 10.5679 13.9555C10.3426 13.6716 10.4215 13.3543 10.4671 13.0405C10.4925 12.8661 10.6494 12.7775 10.7353 12.6417C10.9062 12.37 10.9141 12.1026 10.7029 11.8563C10.6231 11.7634 10.5442 11.8292 10.5267 11.8931C10.5039 11.9747 10.475 12.0036 10.4022 11.9782C10.1551 11.894 9.92717 11.781 9.78869 11.5426C9.71243 11.4111 9.61251 11.2752 9.47578 11.2367C9.21108 11.1622 8.99809 11.0184 8.79649 10.8449C8.75004 10.8045 8.70096 10.7572 8.63084 10.766C8.22853 10.8203 7.97171 10.5276 7.67283 10.3496C7.53084 10.2655 7.42741 10.1042 7.46247 9.90614C7.46773 9.87633 7.46598 9.83952 7.45283 9.81323C7.22143 9.35482 6.9392 8.92183 6.77793 8.42574C6.72797 8.80175 6.93833 9.1243 6.97689 9.531C6.69554 9.1839 6.63506 8.80438 6.55705 8.43363C6.53602 8.33458 6.55179 8.22239 6.49219 8.13737C6.2757 7.82884 6.29586 7.46861 6.25291 7.12064C6.23888 7.00932 6.28359 6.92167 6.32741 6.82964C6.42645 6.62454 6.5255 6.41944 6.6298 6.21785C6.69992 6.08199 6.74988 5.94964 6.69554 5.79363C6.63769 5.62709 6.77442 5.5 6.81123 5.35275C6.89976 4.99426 6.87785 4.63402 6.87434 4.27466C6.87259 4.09147 6.72271 3.95299 6.67538 3.77769C6.65785 3.71195 6.59036 3.7812 6.5553 3.76717C6.4992 3.74526 6.37737 3.79171 6.43259 3.62781C6.4545 3.56207 6.309 3.58837 6.24414 3.62606C6.0443 3.74088 5.84709 3.69179 5.62183 3.64534C5.70422 3.56558 5.78311 3.56032 5.85586 3.54454C5.94614 3.52526 5.97857 3.49721 5.97068 3.38765C5.94877 3.06598 6.28271 2.83108 6.59211 2.93538C6.69466 2.97044 6.75777 2.94064 6.7157 2.82669C6.67012 2.70398 6.71745 2.6102 6.81386 2.57163C6.91992 2.52956 6.95849 2.64263 7.01371 2.75745C7.14868 2.44104 7.36255 2.40773 7.63777 2.51992C7.75522 2.56725 7.84112 2.59618 7.84375 2.75044C7.8455 2.85474 7.92088 2.95554 7.94279 3.06247C7.98837 3.27896 8.08303 3.4192 8.33458 3.38151C8.45466 3.36398 8.53004 3.44725 8.57386 3.54016C8.75881 3.93371 9.14359 3.99155 9.49769 4.1055C9.63968 4.15108 9.68 4.01171 9.78518 3.95124C9.7957 4.03363 9.80446 4.09849 9.8141 4.18C9.97538 4.10637 9.86406 3.99681 9.87896 3.91442C9.89299 3.8408 10.0744 3.73562 9.82813 3.71108C9.7808 3.70669 9.77641 3.55155 9.83514 3.50685C9.91841 3.44287 10.0324 3.46215 10.1253 3.51036C10.2234 3.56207 10.1463 3.60151 10.1095 3.6506C10.0026 3.79171 10.0823 3.92932 10.1594 4.03801C10.198 4.09235 10.2462 4.15633 10.2944 4.20805C10.3794 4.17386 10.3549 4.0047 10.4995 4.05729C10.5723 4.08359 10.6275 4.11602 10.6091 4.20805C10.5863 4.32024 10.5959 4.4596 10.4119 4.42629C10.3978 4.42367 10.3724 4.42629 10.3672 4.43594C10.2094 4.73833 9.82462 4.79355 9.65809 5.09155C9.56343 5.26072 9.61865 5.42725 9.81323 5.48072C9.90876 5.50701 9.96749 5.58502 10.0411 5.64199C10.1095 5.69458 10.1682 5.7612 10.2637 5.76382C10.4066 5.76733 10.4504 5.82869 10.4154 5.97418C10.3882 6.08725 10.4163 6.10653 10.6319 6.30725C10.6871 6.25904 10.7423 6.19418 10.7265 6.12669C10.681 5.93562 10.6783 5.77084 10.8904 5.67705C10.9211 5.66303 10.9404 5.62359 10.9132 5.6008C10.6906 5.41147 10.8747 5.14239 10.7642 4.93116C11.1306 4.89171 11.2542 4.95745 11.4049 5.26247C11.4733 5.40096 11.5618 5.37904 11.7415 5.14327C11.8818 5.5412 12.2508 5.65777 12.54 5.86988C12.6566 5.9549 12.6671 6.08024 12.6837 6.19506C12.6986 6.29761 12.7232 6.33793 12.8257 6.31251C12.888 6.29761 12.9537 6.28446 12.9844 6.36422C13.0151 6.44311 13.0861 6.52375 13.0519 6.60614C13.0151 6.69379 12.9125 6.64908 12.8406 6.65084C12.5382 6.65697 12.5391 6.65434 12.5794 6.33705C12.5856 6.28622 12.6163 6.22311 12.554 6.1898C12.5041 6.16351 12.4629 6.20996 12.4322 6.24064C12.3218 6.34845 12.199 6.38964 12.0474 6.34056C11.9089 6.29586 11.8283 6.38438 11.7424 6.49307C11.8143 6.49307 11.8765 6.48781 11.9378 6.4957C11.9676 6.4992 12.0308 6.50183 12.0018 6.56143C11.8774 6.81912 12.0641 6.85944 12.2402 6.9094C12.2841 6.92167 12.327 6.93833 12.4234 6.96988C12.2104 7.0251 12.1193 7.31347 11.8721 7.09084C11.809 7.03386 11.5434 7.25124 11.5548 7.35641C11.568 7.47737 11.5136 7.51681 11.4155 7.56064C11.2261 7.64566 11.0964 7.80167 11.071 8.00502C11.0368 8.28638 10.9018 8.4906 10.6678 8.62821C10.4382 8.76406 10.3978 8.93147 10.4978 9.17339C10.56 9.32414 10.6161 9.49681 10.4881 9.65546C10.4136 9.62303 10.3978 9.5494 10.3917 9.49594C10.3356 9.0498 9.95434 8.89378 9.66247 8.98932C9.33379 9.09713 9.00598 8.88677 8.70797 9.09012C8.60454 9.16112 8.53267 9.20494 8.53179 9.35132C8.53092 9.57395 8.40382 9.77729 8.43187 10.0148C8.45992 10.2532 8.62383 10.4101 8.78861 10.4671C8.9341 10.5179 9.16199 10.4443 9.25402 10.2392C9.33817 10.0516 9.50821 10.1288 9.64582 10.1139C9.69928 10.1086 9.70542 10.1568 9.69227 10.1971C9.62566 10.4084 9.66072 10.659 9.4004 10.8405C9.57657 10.8405 9.70279 10.8422 9.829 10.8405C10.0779 10.8361 10.1402 10.9045 10.0955 11.1402C10.0841 11.2016 10.0727 11.2638 10.0595 11.3252C9.99992 11.6092 10.2339 11.8318 10.5188 11.7608C10.638 11.731 10.7546 11.674 10.8457 11.8248C10.8931 11.9037 10.9448 11.8344 10.9667 11.7897C11.0798 11.5504 11.3199 11.4409 11.5303 11.4102C11.6433 11.3935 11.8546 11.3927 11.9887 11.49C12.0772 11.5539 12.1631 11.5575 12.2551 11.5399C12.6653 11.461 13.001 11.6188 13.2736 11.8967C13.4542 12.0807 13.6496 12.1228 13.8863 12.1158C14.1475 12.1088 14.4622 12.4138 14.4481 12.6776C14.4394 12.8398 14.5165 12.8722 14.6348 12.8757C14.9898 12.8845 15.2983 13.1334 15.6743 13.0606C15.7637 13.0431 15.8786 13.1614 15.982 13.2175C16.0092 13.2324 16.0398 13.2456 16.0618 13.2675C16.1468 13.3534 16.3387 13.2307 16.3685 13.448C16.3992 13.6707 16.3124 13.8433 16.2116 14.0195L16.2143 14.016ZM11.9913 10.4916C11.688 10.6485 11.639 10.6494 11.3401 10.5013C11.6407 10.2944 11.7669 10.2953 11.9913 10.4916ZM11.1201 10.3128C10.7607 10.4206 10.5959 10.113 10.347 9.98414C10.6713 9.94383 10.8677 10.191 11.1201 10.3128Z" fill="#0063FF"/>
</svg>
