
<svg width="22" height="22" viewBox="0 0 22 22" fill="none" xmlns="http://www.w3.org/2000/svg">
<path d="M11 0C4.92502 0 0 4.92502 0 11C0 17.075 4.92502 22 11 22C17.075 22 22 17.075 22 11C22 4.92502 17.075 0 11 0ZM8.41259 8.51163C8.63785 8.2408 8.86048 7.95857 9.13044 7.73594C9.2996 7.59657 9.55116 7.55976 9.7659 7.47649C9.80797 7.46072 9.84829 7.44231 9.89386 7.4239C9.86845 7.34765 9.7992 7.30645 9.77203 7.23108C9.72382 7.09522 9.73259 6.99355 9.86845 6.92343C10.0017 6.85506 10.0753 6.74024 10.1323 6.60701C10.1875 6.47729 10.2594 6.35546 10.3137 6.22486C10.6599 5.39044 11.1376 4.63315 11.6749 3.91179C11.7257 3.84343 11.7836 3.78908 11.8546 3.74263C12.405 3.38765 12.9782 3.07474 13.5594 2.77498C13.6295 2.73904 13.7005 2.71713 13.7794 2.71538C14.1387 2.70749 14.4981 2.69873 14.8575 2.68908C14.9469 2.68645 15.0222 2.70135 15.059 2.79777C15.0967 2.89506 15.152 3.009 15.0485 3.08088C14.5778 3.40781 14.7347 3.92056 14.6594 4.36319C14.6401 4.47888 14.7672 4.53323 14.8434 4.59195C14.9793 4.69713 15.0187 4.82247 14.9723 4.97936C14.8487 5.39657 14.8794 5.79801 15.0836 6.18367C15.1388 6.28709 15.1344 6.38614 15.088 6.49482C14.9022 6.9357 15.0328 7.35028 15.2405 7.73594C15.3378 7.91649 15.3535 8.03131 15.2194 8.19347C14.9539 8.51426 14.7076 8.85171 14.4595 9.18741C14.3885 9.28382 14.3149 9.33729 14.1896 9.3294C13.9047 9.31187 13.6269 9.34343 13.3674 9.4749C13.285 9.51697 13.207 9.50996 13.1386 9.44159C13.1343 9.43721 13.129 9.43283 13.1237 9.4302C12.8205 9.25139 12.6846 9.00247 12.6732 8.63522C12.6539 8.03044 12.6294 8.03307 13.0221 7.57554C13.2307 7.33187 13.4288 7.07944 13.6409 6.83928C13.7233 6.74637 13.7294 6.66661 13.6707 6.56494C13.6356 6.50446 13.6111 6.43785 13.5813 6.37299C13.448 6.08112 13.2964 6.02765 13.0089 6.16614C12.9537 6.19243 12.9414 6.23976 12.9178 6.28359C12.7574 6.57283 12.6478 6.87873 12.6399 7.21267C12.6364 7.34151 12.5786 7.42653 12.4786 7.50016C12.2622 7.66056 12.0518 7.82885 11.8353 7.98924C11.7538 8.04972 11.7021 8.11809 11.6819 8.21976C11.6092 8.58438 11.5338 8.94813 11.4523 9.311C11.4242 9.43546 11.4523 9.48016 11.5802 9.44861C11.6171 9.43984 11.6565 9.44159 11.6951 9.43634C11.8002 9.42231 11.9229 9.37323 11.9659 9.52661C12.0106 9.68526 11.9229 9.83163 11.7669 9.87809C11.724 9.89124 11.681 9.90614 11.6372 9.91227C11.4917 9.93155 11.4453 10.0096 11.4365 10.1568C11.4146 10.5469 11.3655 10.936 11.3375 11.3261C11.3287 11.4461 11.2761 11.5119 11.1744 11.5592C11.0578 11.6127 10.9465 11.6758 10.8317 11.7336C10.6257 11.8379 10.6065 11.8318 10.5206 11.6232C10.2909 11.0666 10.0622 10.5092 9.83251 9.95259C9.8141 9.90789 9.79132 9.86406 9.75888 9.7957C9.69227 9.96136 9.63092 10.1016 9.57833 10.2453C9.53713 10.3567 9.46701 10.4084 9.34693 10.4049C9.16112 10.3996 8.97442 10.4049 8.78861 10.4031C8.59052 10.4005 8.54757 10.347 8.59753 10.1551C8.70621 9.74048 8.81928 9.3259 8.93235 8.9043C8.85259 8.87626 8.79211 8.92096 8.72813 8.93761C8.63171 8.96215 8.51339 9.03402 8.45291 8.91044C8.39418 8.78948 8.30916 8.63785 8.41259 8.51251V8.51163ZM6.15562 4.47625C6.24239 4.42016 6.30375 4.4561 6.34669 4.52884C6.40717 4.63139 6.45976 4.691 6.61052 4.67697C6.78319 4.66032 6.85068 4.84789 6.91378 4.97936C6.97514 5.10645 6.84892 5.15554 6.7604 5.20024C6.62629 5.26773 6.5106 5.37729 6.36598 5.39482C6.19506 5.33434 6.03817 5.28175 5.88303 5.22478C5.82255 5.20287 5.79713 5.15554 5.79801 5.0898C5.80239 4.81721 5.93474 4.62175 6.15737 4.47713L6.15562 4.47625ZM5.54382 10.6301C5.58502 10.5828 5.62008 10.5249 5.64199 10.4653C5.72175 10.2471 5.88916 10.219 6.089 10.2383C6.21259 10.2506 6.2345 10.2988 6.16701 10.3978C6.12056 10.4662 6.07498 10.5355 6.01713 10.6222C6.09777 10.6441 6.15912 10.6608 6.22048 10.6775C6.50884 10.7537 6.57283 10.9071 6.4247 11.1692C6.41857 11.1806 6.4098 11.1902 6.40279 11.2007C6.35108 11.2814 6.25466 11.3646 6.2608 11.4409C6.26781 11.5276 6.42645 11.5215 6.48255 11.5916C6.69729 11.8616 6.98829 12.0869 7.01984 12.4699C7.03036 12.5978 7.03825 12.7258 7.06016 12.852C7.0698 12.9055 7.07068 13.0028 7.16446 12.9774C7.24948 12.9546 7.33363 12.9169 7.38359 13.0124C7.43793 13.115 7.47299 13.2377 7.41339 13.3446C7.32398 13.5068 7.2153 13.6584 7.11187 13.8127C7.0812 13.8582 7.02948 13.867 6.97602 13.8714C6.82263 13.8819 6.66924 13.9065 6.51586 13.9047C6.37649 13.9038 6.27394 13.945 6.18454 14.0555C6.08112 14.1826 5.74454 14.179 5.63586 14.0625C5.58239 14.0046 5.6008 13.9573 5.66566 13.9266C5.76382 13.8793 5.86287 13.8346 5.96279 13.7916C6.06446 13.7487 6.15036 13.6865 6.2345 13.5778C6.12845 13.5585 6.03817 13.5453 5.94877 13.5261C5.79275 13.4919 5.75594 13.3911 5.85147 13.264C5.87426 13.2333 5.89618 13.1982 5.92598 13.1763C6.28008 12.9248 6.23713 12.5724 6.17928 12.2122C6.16351 12.1105 6.13458 12.0886 6.03116 12.1193C5.82956 12.1789 5.75155 12.1245 5.78924 11.9203C5.84622 11.6162 5.67442 11.4014 5.53243 11.1823C5.40271 10.9825 5.3808 10.8142 5.54032 10.6301H5.54382ZM4.42717 13.5094C4.34303 13.4077 4.36845 13.3157 4.45697 13.2412C4.60861 13.1141 4.5788 12.9853 4.51482 12.8196C4.40438 12.5339 4.55952 12.0106 4.93116 11.9659C4.96884 11.9615 5.00566 11.9484 5.04335 11.9387C5.37554 11.8528 5.55697 11.9966 5.55171 12.3533C5.54645 12.3691 5.54295 12.4033 5.52629 12.4287C5.41147 12.6049 5.39131 12.7951 5.43163 12.9975C5.45004 13.0913 5.40622 13.1518 5.32295 13.1991C5.11697 13.3157 4.91275 13.4349 4.71116 13.5602C4.59546 13.6321 4.50869 13.6076 4.42717 13.5094ZM9.38199 18.1802C9.2549 18.2504 9.26104 18.0978 9.23036 18.0251C9.16287 17.8673 9.10414 17.7096 9.311 17.6018C9.35394 17.5798 9.36884 17.5378 9.35482 17.4869C9.3408 17.4352 9.34255 17.3826 9.38024 17.3423C9.42845 17.2888 9.45124 17.1854 9.5459 17.21C9.64669 17.2354 9.60813 17.3344 9.62303 17.4282C9.55554 17.5737 9.60024 17.7218 9.65108 17.8892C9.70367 18.061 9.49506 18.1189 9.38112 18.1811L9.38199 18.1802ZM11.1709 18.6912C11.1692 18.7228 11.1692 18.7552 11.1648 18.7868C11.149 18.9016 11.1753 19.0392 10.9807 19.0322C10.8002 19.0261 10.5749 18.9042 10.5556 18.7789C10.5451 18.7131 10.5916 18.6869 10.6389 18.6667C10.7449 18.622 10.8519 18.5817 10.9597 18.5405C11.1595 18.4651 11.1806 18.4809 11.1709 18.6904V18.6912ZM17.4475 14.9854C17.1442 15.1765 16.8559 15.393 16.557 15.5911C16.4658 15.6516 16.4299 15.6927 16.5202 15.79C16.6385 15.918 16.5912 16.0372 16.4623 16.131C16.4159 16.1652 16.3624 16.1888 16.3142 16.2195C16.216 16.2818 16.1108 16.3247 16.0135 16.2353C15.9127 16.1424 15.8488 16.0258 15.8558 15.8794C15.8584 15.8225 15.9557 15.7646 15.8672 15.712C15.7865 15.6638 15.7006 15.6069 15.599 15.6253C15.4535 15.6507 15.3106 15.6901 15.166 15.7129C15.088 15.7252 15.0608 15.7769 15.0336 15.8356C14.8759 16.1792 14.7172 16.5228 14.5594 16.8664C14.5489 16.89 14.5279 16.9146 14.5305 16.9365C14.5603 17.2021 14.47 17.3572 14.1773 17.3537C14.1142 17.3537 14.1045 17.4343 14.0826 17.4869C14.0195 17.6359 13.9056 17.6947 13.7575 17.6351C13.5822 17.5641 13.4726 17.7148 13.3271 17.7385C13.1106 17.7735 13.1448 17.9375 13.1264 18.09C13.0966 18.3319 13.1842 18.544 13.2596 18.7614C13.2973 18.87 13.3253 18.9752 13.2272 19.0629C13.1404 19.14 13.03 19.1365 12.9379 19.0883C12.8214 19.0278 12.7521 18.9077 12.7872 18.7833C12.8205 18.6641 12.7775 18.6386 12.6855 18.5957C12.5567 18.5361 12.5242 18.3853 12.4392 18.2837C12.2306 18.0339 12.1421 17.7499 12.1868 17.4273C12.2087 17.2696 12.1394 17.1705 12.0194 17.0715C11.8432 16.9251 11.6714 16.7919 11.4277 16.8006C11.3226 16.8041 11.2717 16.7279 11.22 16.6516C11.0561 16.4141 10.8878 16.1792 10.7257 15.9408C10.6503 15.8295 10.5951 15.8277 10.5127 15.9399C10.3198 16.2037 10.3312 16.1924 10.4759 16.4877C10.7011 16.9461 11.0026 17.3116 11.4882 17.5141C11.6758 17.5921 11.7363 17.8016 11.8195 17.9708C11.8598 18.0531 11.7976 18.0873 11.7143 18.0488C11.6565 18.0225 11.6013 17.9918 11.4847 17.9322C11.681 18.232 11.5461 18.4344 11.3962 18.6334C11.3664 18.6728 11.3445 18.7324 11.2796 18.7123C11.2218 18.6947 11.213 18.6395 11.213 18.5869C11.213 18.5484 11.2174 18.5098 11.2165 18.4712C11.2139 18.2284 11.1499 18.0356 10.9088 17.9059C10.6336 17.7578 10.3768 17.5763 10.1323 17.3747C9.94558 17.2205 9.84303 17.0496 9.81849 16.8112C9.79307 16.5684 9.50295 16.4746 9.27506 16.5508C9.04542 16.628 8.84295 16.7156 8.6396 16.8532C8.48359 16.9593 8.24693 16.9531 8.04446 16.9847C7.94805 16.9996 7.88582 17.0268 7.89195 17.1363C7.90598 17.4028 7.77538 17.5676 7.52908 17.6508C7.28191 17.7341 7.14518 17.9033 7.11275 18.1653C7.06717 18.5361 6.82526 18.799 6.59562 19.0664C6.52199 19.1523 6.42645 19.1733 6.3204 19.1786C6.08637 19.1908 5.84622 19.154 5.62709 19.2855C5.55347 19.3302 5.44303 19.3074 5.40271 19.2294C5.3212 19.0699 5.1906 19.0743 5.04685 19.0751C4.72693 19.0786 4.69363 19.0427 4.69275 18.7245C4.69275 18.1916 4.69187 17.6587 4.69275 17.1267C4.69275 16.8725 4.74271 16.8217 4.99777 16.8208C5.48598 16.8182 5.97331 16.8155 6.46151 16.8225C6.59825 16.8243 6.65171 16.7682 6.71833 16.6525C6.90853 16.3238 6.90151 16.0249 6.6859 15.7112C6.55442 15.521 6.51235 15.2703 6.26343 15.1642C6.18454 15.1309 6.17578 15.0284 6.19594 14.9398C6.2196 14.8364 6.29849 14.7926 6.39052 14.7803C6.5141 14.7637 6.62191 14.7488 6.67626 14.605C6.70781 14.5218 6.80948 14.5077 6.89538 14.5253C7.01283 14.5489 7.08821 14.5033 7.15131 14.4069C7.20303 14.3263 7.27665 14.2597 7.32661 14.1782C7.45984 13.9599 7.6439 13.8135 7.89546 13.7592C8.00327 13.7355 8.06988 13.6707 8.12598 13.576C8.26271 13.3446 8.41084 13.1185 8.55108 12.8888C8.62645 12.7661 8.72462 12.7013 8.87187 12.746C9.05331 12.8012 9.19267 12.6855 9.34343 12.6259C9.42932 12.5917 9.38725 12.5225 9.36359 12.462C9.2961 12.2893 9.24526 12.1079 9.16199 11.9431C9.01562 11.6504 9.05331 11.362 9.14008 11.0666C9.19355 10.8869 9.44861 10.7371 9.62478 10.7905C9.72996 10.8221 9.7694 10.9036 9.7808 11.0088C9.8106 11.2892 9.7659 11.5513 9.64406 11.8099C9.50383 12.107 9.7212 12.3857 10.042 12.3437C10.106 12.3358 10.1708 12.3375 10.2331 12.3253C10.432 12.2858 10.546 12.3717 10.6178 12.5549C10.6555 12.6513 10.6678 12.8126 10.7747 12.8178C10.8939 12.824 10.9001 12.6592 10.9378 12.5654C11.0044 12.4015 11.1043 12.3025 11.2822 12.2718C11.4014 12.2516 11.518 12.2104 11.6337 12.1727C11.7503 12.1351 11.8371 12.1096 11.9151 12.2604C11.9843 12.3963 12.3849 12.3112 12.4418 12.1649C12.5794 11.8116 12.6592 11.4418 12.7504 11.0745C12.8126 10.8238 12.9782 10.7695 13.1737 10.9229C13.2272 10.9649 13.2859 11.0815 13.3569 10.9956C13.4323 10.9053 13.5445 10.8063 13.4998 10.6608C13.4778 10.588 13.4331 10.5223 13.399 10.4539C13.2237 10.0998 13.3902 9.829 13.7837 9.829C13.9503 9.829 14.1177 9.82725 14.2842 9.82988C14.3447 9.83076 14.4236 9.80972 14.4394 9.9C14.4534 9.97976 14.3789 9.99203 14.3289 10.0078C14.2457 10.0332 14.2027 10.0744 14.2483 10.1594C14.4446 10.5214 14.3973 10.9211 14.4192 11.3085C14.4271 11.4426 14.4718 11.504 14.6041 11.5198C14.7374 11.5355 14.868 11.5732 15.0012 11.5925C15.1528 11.6144 15.2466 11.7012 15.23 11.8484C15.2019 12.0982 15.3474 12.2324 15.5148 12.3717C15.719 12.5418 15.7041 12.6837 15.4701 12.8108C15.3904 12.8538 15.3886 12.9081 15.4123 12.9669C15.4429 13.0414 15.407 13.1632 15.5429 13.1702C15.5622 13.1711 15.5814 13.1702 15.6007 13.1711C16.0416 13.1877 16.0425 13.1869 16.1354 13.6049C16.1476 13.6602 16.1783 13.6952 16.2151 13.7303C16.4273 13.9363 16.6437 14.1317 16.954 14.1852C17.0916 14.2088 17.2214 14.2711 17.3555 14.3149C17.4773 14.3552 17.6105 14.3806 17.6184 14.5498C17.6272 14.7216 17.6184 14.8724 17.444 14.9828L17.4475 14.9854Z" fill="#0063FF"/>
</svg>
