
<svg width="22" height="22" viewBox="0 0 22 22" fill="none" xmlns="http://www.w3.org/2000/svg">
<path d="M10.9157 0C4.8873 0 0 4.92502 0 11C0 17.075 4.8873 22 10.9157 22C16.9442 22 21.8315 17.075 21.8315 11C21.8315 4.92502 16.9442 0 10.9157 0ZM8.28727 3.79171C8.45166 3.72159 8.62039 3.63657 8.79348 3.61904C8.93699 3.60414 9.03963 3.74175 9.12487 3.86183C9.20924 3.98104 9.20141 4.18526 9.36754 4.22032C9.52758 4.2545 9.59281 4.06606 9.70762 3.98629C9.85983 3.88024 9.98595 3.8592 10.1608 3.93721C10.5609 4.11602 10.9705 4.27291 11.3785 4.43331C11.4837 4.4745 11.5681 4.53235 11.6264 4.62877C11.7246 4.79092 11.8325 4.9408 12.0334 4.98637C12.1047 5.00215 12.1508 5.06877 12.1491 5.12924C12.143 5.31243 12.2613 5.44215 12.3404 5.58151C12.4266 5.73402 12.6153 5.79713 12.7223 5.94351C12.7692 6.00749 12.9023 6.03904 12.8371 6.14159C12.7797 6.23187 12.6605 6.2906 12.5535 6.25466C12.2543 6.15474 11.9212 6.10127 11.782 5.74367C11.6959 5.52104 11.4611 5.55785 11.2871 5.49036C11.2593 5.47984 11.2437 5.50175 11.2245 5.52892C11.0306 5.8059 10.7061 5.84622 10.4713 5.61044C10.3782 5.51753 10.2817 5.52717 10.1756 5.53068C10.0886 5.53331 10.006 5.5412 9.9529 5.44303C9.90158 5.34924 9.95029 5.30542 9.99204 5.22303C10.0616 5.08454 9.9268 4.98988 9.81286 4.93992C9.66848 4.87769 9.51366 4.81458 9.36058 4.80669C9.19967 4.7988 9.14226 4.58056 8.9657 4.64191C8.90133 4.64892 8.81696 4.66733 8.79348 4.59458C8.74738 4.45259 8.57082 4.42454 8.53342 4.33865C8.46035 4.17036 8.3699 4.05817 8.21508 3.96789C8.16898 3.94072 8.21943 3.82064 8.28727 3.79171ZM7.38531 3.58135C7.43662 3.44637 7.48881 3.31139 7.54013 3.17554C7.56361 3.11594 7.57666 3.04406 7.66016 3.04231C7.73322 3.04056 7.7567 3.09841 7.77323 3.1545C7.79932 3.24128 7.84803 3.28685 7.94284 3.28773C7.97241 3.28773 8.00111 3.32279 8.02981 3.3412C7.88717 3.48494 8.08548 3.66462 7.98372 3.80574C7.95414 3.84693 7.94544 3.86271 7.96197 3.91092C8.0359 4.12916 8.02633 4.13793 7.77758 4.1353C7.48881 4.13267 7.28528 3.84518 7.38531 3.58048V3.58135ZM6.73732 5.72701C6.91562 5.59378 7.0861 5.40709 7.35312 5.47546C7.44706 5.49825 7.59405 5.40709 7.63754 5.54207C7.68103 5.67705 7.52273 5.70422 7.44445 5.76558C7.30355 5.87602 7.15047 5.97155 7.00521 6.07761C6.88866 6.16263 6.73819 6.20295 6.65643 6.09426C6.57467 5.9847 6.62686 5.8094 6.73645 5.72701H6.73732ZM12.1674 15.2142C12.1865 15.3982 12.1395 15.5341 12.0882 15.67C12.0064 15.8873 11.6855 15.9802 11.5063 15.8374C11.4228 15.7708 11.3854 15.6682 11.3602 15.5771C11.3098 15.3974 11.1819 15.2335 11.2506 15.024C11.288 14.91 11.3289 14.8504 11.4446 14.9171C11.6316 15.024 11.8055 15.0582 12.0308 14.988C12.263 14.9162 12.1395 15.1502 12.1665 15.2142H12.1674ZM13.4259 12.9344C13.0928 13.207 12.8945 13.5585 12.8153 13.9783C12.7771 14.1799 12.7014 14.3114 12.4666 14.2886C12.2413 14.2676 12.0752 14.4113 11.9047 14.5288C11.7768 14.6164 11.6733 14.6418 11.5916 14.4753C11.5229 14.3333 11.4394 14.3561 11.3489 14.4569C11.2663 14.548 11.1723 14.5621 11.0567 14.5086C10.7827 14.3806 10.4435 14.3719 10.2721 14.0607C10.2478 14.0169 10.1982 13.9748 10.1982 13.9319C10.1982 13.5935 9.97638 13.4945 9.70327 13.4384C9.61542 13.4209 9.58063 13.3578 9.63369 13.2771C9.67022 13.2219 9.71371 13.1746 9.68675 13.0992C9.61629 13.1159 9.58411 13.172 9.55541 13.2272C9.5241 13.2877 9.53018 13.3876 9.42929 13.3727C9.33448 13.3595 9.25794 13.3096 9.21619 13.2114C9.144 13.0414 9.09268 12.8669 8.93004 12.7416C8.67258 12.5435 8.40643 12.384 8.07504 12.4594C7.68364 12.5479 7.28093 12.5908 6.90171 12.7398C6.75906 12.7959 6.666 12.8678 6.64338 13.0194C6.61903 13.1842 6.53466 13.2614 6.36418 13.2386C6.30069 13.2298 6.23372 13.2482 6.17022 13.2394C5.83971 13.1974 5.58486 13.2955 5.43004 13.6128C5.34741 13.782 5.16824 13.7811 5.03081 13.7557C4.84381 13.7215 4.66376 13.6347 4.48807 13.5524C4.39761 13.5103 4.39239 13.2491 4.49155 13.1869C4.6568 13.0826 4.6081 12.9651 4.52982 12.8608C4.38456 12.6662 4.2915 12.4524 4.22017 12.2218C4.13146 11.9343 3.97316 11.6845 3.76876 11.4645C3.70005 11.3909 3.62525 11.3173 3.7044 11.2007C3.74354 11.1429 3.69831 11.0868 3.66786 11.0412C3.46521 10.7406 3.53305 10.4005 3.52435 10.0709C3.52261 10.0148 3.54349 9.96661 3.59132 9.94382C3.72962 9.87721 3.82529 9.75888 3.94185 9.6651C4.32368 9.3592 4.78553 9.19968 5.20477 8.9639C5.36133 8.87626 5.48049 8.76056 5.59791 8.63347C5.63531 8.59315 5.66401 8.54669 5.6414 8.49673C5.5579 8.31442 5.67793 8.21888 5.78665 8.1102C6.00236 7.89458 6.2485 7.71139 6.39463 7.42566C6.49117 7.23633 6.71731 7.19602 6.89736 7.12327C6.98173 7.08908 7.1235 7.08908 7.187 7.20566C7.25832 7.33713 7.374 7.37307 7.52447 7.39673C7.52882 7.22845 7.59144 7.0996 7.72017 7.00669C7.74974 6.98566 7.79236 6.97339 7.78975 6.93394C7.76975 6.64645 7.98198 6.64908 8.17072 6.6149C8.25335 6.6 8.4534 6.67275 8.29945 6.44486C8.22812 6.33968 8.33685 6.27132 8.43078 6.3204C8.70215 6.46239 9.01354 6.44486 9.28926 6.56319C9.37449 6.6 9.48583 6.58598 9.56063 6.53952C9.67631 6.46765 9.72849 6.51936 9.78764 6.60526C9.84852 6.69379 9.84766 6.75339 9.77372 6.85068C9.65891 7.00056 9.58585 7.18287 9.49191 7.3494C9.44582 7.43004 9.50235 7.46335 9.54758 7.51068C9.70153 7.67458 9.9068 7.74645 10.1025 7.83586C10.2391 7.89809 10.3756 7.95418 10.4791 8.07777C10.5713 8.18645 10.6783 8.19084 10.7374 8.03131C10.8331 7.77275 10.974 7.54223 10.9323 7.22845C10.9097 7.06016 10.9671 6.83052 11.0697 6.65084C11.1114 6.57809 11.1193 6.49657 11.1167 6.41944C11.1114 6.27657 11.2028 6.22924 11.3106 6.20032C11.4324 6.16701 11.4515 6.27307 11.482 6.34932C11.5855 6.60964 11.7507 6.8498 11.7386 7.14781C11.7368 7.19339 11.7577 7.2188 11.8116 7.23283C12.0986 7.30908 12.2335 7.46335 12.1882 7.74996C12.1561 7.95594 12.3535 8.05147 12.3422 8.2294C12.3222 8.55984 12.4874 8.77108 12.771 8.9043C12.9989 9.01124 13.1041 9.19179 13.1459 9.43984C13.192 9.71506 13.4024 9.91402 13.5425 10.141C13.7538 10.4837 14.0261 10.787 13.9339 11.2349C13.9234 11.284 13.913 11.3392 13.9261 11.3857C14.0609 11.8818 13.7678 12.2788 13.6277 12.7109C13.5955 12.81 13.5025 12.8704 13.4259 12.9335V12.9344ZM16.1892 16.9146C16.1049 17.0189 16.0014 17.1144 16.1075 17.2739C16.1597 17.3528 16.0831 17.4151 16.01 17.4308C15.5934 17.5255 15.4169 17.806 15.3595 18.2135C15.316 18.5186 15.0472 18.6886 14.8724 18.9147C14.8185 18.9849 14.7384 18.9498 14.6697 18.9358C14.374 18.8735 14.0809 18.8034 13.7843 18.7465C13.6355 18.7184 13.6095 18.6483 13.626 18.5037C13.6521 18.2679 13.7625 18.0943 13.9095 17.9147C14.2148 17.5395 14.5897 17.252 14.9707 16.9672C15.0168 16.933 15.0898 16.9032 15.1011 16.8585C15.1838 16.5438 15.4151 16.2984 15.5082 15.9969C15.5691 15.8006 15.7021 15.7173 15.8413 15.6314C15.9318 15.5744 15.9744 15.6857 16.0022 15.7576C16.0561 15.8987 16.124 15.975 16.2849 15.8786C16.4101 15.8032 16.4702 15.868 16.4763 16.003C16.4806 16.0898 16.491 16.1766 16.4936 16.2081C16.5006 16.5307 16.3458 16.7218 16.191 16.9146H16.1892ZM18.0532 14.8785C18.0593 15.0047 17.9462 14.9784 17.8618 14.9267C17.7435 14.8539 17.7 14.8688 17.6757 15.0275C17.6183 15.3991 17.46 15.7252 17.1486 15.9575C17.1025 15.9916 17.0581 16.0284 17.019 16.0696C16.932 16.1599 16.8555 16.2055 16.8033 16.0416C16.7989 16.0284 16.7937 16.0074 16.7842 16.0048C16.4171 15.8926 16.6598 15.6901 16.7337 15.5446C16.8198 15.3763 16.7833 15.2896 16.6267 15.2229C16.5606 15.1949 16.491 15.173 16.4275 15.1397C16.2118 15.0266 16.1892 14.7514 16.4023 14.6427C16.518 14.584 16.5284 14.5051 16.5493 14.4061C16.6606 13.9012 16.4876 13.4708 16.1718 13.1027C16.0022 12.9055 15.9874 12.6382 15.8091 12.4515C15.7422 12.3814 15.8126 12.3235 15.9161 12.3139C16.017 12.3743 16.1205 12.4673 16.2405 12.5023C16.6206 12.6119 16.7633 12.8906 16.8146 13.25C16.8355 13.3928 16.8903 13.4945 17.0677 13.4568C17.1912 13.4305 17.2156 13.5252 17.2477 13.6225C17.2869 13.739 17.2547 13.8837 17.3974 13.9643C17.5652 14.0598 17.7131 14.1449 17.8818 13.9573C18.0001 13.8258 18.1314 13.9056 18.2506 13.9818C18.3828 14.0669 18.2532 14.158 18.261 14.2395C18.2837 14.4884 18.0392 14.6322 18.0514 14.8785H18.0532Z" fill="#0063FF"/>
</svg>
