
<svg width="22" height="22" viewBox="0 0 22 22" fill="none" xmlns="http://www.w3.org/2000/svg">
<path d="M10.8174 0C4.84327 0 0 4.92502 0 11C0 17.075 4.84327 22 10.8174 22C16.7915 22 21.6348 17.075 21.6348 11C21.6348 4.92502 16.7915 0 10.8174 0ZM17.8276 15.0152C17.8035 14.9959 17.7776 14.9758 17.7733 14.9723C17.6578 15.3018 17.5587 15.6331 17.4259 15.9496C17.2725 16.3151 17.1122 16.6823 16.9053 17.0171C16.839 17.1241 16.6131 17.1705 16.4614 17.167C16.3787 17.1644 16.2261 16.9908 16.2347 16.9076C16.2606 16.6437 16.1089 16.3405 16.3787 16.1178C16.6002 15.9355 16.5304 15.6866 16.4924 15.4543C16.4675 15.3036 16.6157 15.0564 16.7605 15.0336C16.851 15.0196 16.9415 15.0047 17.0665 14.9845C17.0743 14.9618 17.0424 14.804 17.1846 14.9065C17.3346 14.6813 17.4828 14.4604 17.65 14.2088C17.6569 14.2115 17.7216 14.2176 17.7578 14.2527C17.8414 14.3342 17.8836 14.9065 17.8276 15.0152ZM17.9957 9.3259C17.8474 9.63793 17.7061 9.95697 17.519 10.2445C17.3777 10.4618 17.1734 10.6371 16.9924 10.8273C16.8234 11.0053 16.6364 11.1665 16.4804 11.355C16.2459 11.6372 16.0244 11.9317 15.8098 12.2297C15.7331 12.3358 15.6891 12.4664 15.6357 12.5891C15.6227 12.618 15.6296 12.6592 15.6357 12.6934C15.6658 12.8801 15.696 13.0668 15.7322 13.2526C15.7495 13.342 15.7581 13.4437 15.8063 13.5129C15.9546 13.7224 15.9175 13.9424 15.8779 14.1677C15.8632 14.2518 15.8374 14.3386 15.8451 14.4218C15.8908 14.9582 15.6814 15.0731 15.2866 15.2527C14.9823 15.3912 14.7634 15.6226 14.5453 15.8575C14.5039 15.9022 14.5039 16.032 14.5367 16.0924C14.6634 16.3282 14.5815 16.5587 14.5315 16.784C14.516 16.8532 14.4057 16.9111 14.329 16.9549C14.2074 17.025 14.0773 17.0785 13.954 17.1372C14.0195 17.3826 13.9014 17.6728 13.7342 17.8244C13.592 17.9532 13.4765 18.1154 13.3584 18.2705C13.1576 18.5352 12.9137 18.7175 12.5921 18.8236C12.3594 18.8998 12.1336 18.9139 11.8974 18.9209C11.7612 18.9253 11.6276 18.9787 11.4914 18.9892C11.3303 19.0015 11.1665 18.9919 10.9958 18.9919C10.9846 18.8096 10.8777 18.6921 10.9717 18.5247C11.0122 18.4528 10.9286 18.2951 10.8777 18.1881C10.7976 18.0181 10.72 17.8375 10.6011 17.6973C10.3916 17.4501 10.3106 17.1618 10.2839 16.855C10.2425 16.3764 10.0692 15.9566 9.77014 15.5902C9.56155 15.3351 9.59862 15.0459 9.67188 14.7698C9.73222 14.541 9.83479 14.3149 9.95891 14.1133C10.0761 13.9222 10.0942 13.7531 9.99683 13.5576C9.97011 13.5041 9.94598 13.441 9.94943 13.3841C9.9615 13.1684 9.93477 12.9695 9.80031 12.7907C9.76152 12.739 9.76411 12.6557 9.74601 12.5865C9.67102 12.2981 9.43485 12.1359 9.25298 11.9308C9.13748 11.7994 8.99267 11.6731 9.01853 11.4698C9.0349 11.3392 9.07542 11.2112 9.10645 11.0824C9.13748 10.9535 9.1754 10.8256 9.20212 10.6959C9.25125 10.4592 8.99353 10.2015 8.75563 10.2427C8.64875 10.2611 8.53842 10.29 8.43327 10.2786C8.36345 10.2708 8.26346 10.2147 8.24192 10.1551C8.09797 9.77116 7.81008 9.79394 7.53857 9.85442C7.27223 9.91402 7.02054 10.0359 6.75678 10.1112C6.6137 10.1516 6.45941 10.1603 6.3103 10.1673C6.10688 10.177 5.89398 10.1323 5.70176 10.1805C5.40095 10.255 5.13978 10.2576 4.90447 10.0245C4.71398 9.83602 4.48987 9.67912 4.32265 9.47227C4.15544 9.26542 4.04338 9.01299 3.90116 8.78335C3.86237 8.72024 3.80118 8.67203 3.7598 8.61155C3.75118 8.59928 3.78135 8.55896 3.79342 8.53092C3.7779 8.54231 3.76325 8.55371 3.74774 8.56422C3.66413 8.47307 3.56931 8.3898 3.50294 8.28638C3.48139 8.25307 3.53656 8.16892 3.56587 8.08127C3.43657 7.96645 3.48915 7.79904 3.57017 7.63426C3.71584 7.33976 3.82445 7.03649 3.79256 6.69904C3.79083 6.68064 3.80118 6.65785 3.79428 6.64295C3.59086 6.24064 3.88048 5.99084 4.077 5.71825C4.25628 5.46932 4.44591 5.22741 4.64502 4.99426C4.71139 4.91625 4.81396 4.8549 4.91136 4.82072C5.17167 4.72869 5.38974 4.59809 5.46042 4.30534C5.52765 4.02661 5.72848 3.87235 5.94397 3.71809C6.0793 3.6208 6.20859 3.49896 6.30168 3.36048C6.4008 3.2141 6.50424 3.19394 6.63525 3.27283C6.83608 3.39378 7.04554 3.36661 7.25068 3.31578C7.46961 3.26143 7.67907 3.17116 7.898 3.11418C8.04884 3.07562 8.20658 3.05633 8.36259 3.04757C8.71167 3.02829 9.06076 3.02303 9.40985 3.00637C9.56759 2.99936 9.61068 3.07299 9.56672 3.2141C9.52277 3.35522 9.59862 3.53665 9.43054 3.63745C9.49691 3.71633 9.54949 3.8294 9.63396 3.86622C9.80807 3.94159 9.99942 3.97402 10.183 4.02661C10.2287 4.03976 10.2873 4.04853 10.3132 4.08183C10.4968 4.31323 10.7786 4.35092 11.0234 4.45872C11.2018 4.53673 11.3035 4.46749 11.3251 4.27203C11.3604 3.95299 11.519 3.8741 11.8285 3.98279C12.1663 4.10112 12.5111 4.21155 12.8611 4.27992C13.0214 4.31147 13.2084 4.25363 13.3722 4.20104C13.5567 4.14143 13.7523 4.18526 13.7808 4.37283C13.8377 4.75498 14.129 4.99426 14.2833 5.31506C14.3385 5.42988 14.441 5.52016 14.5031 5.63147C14.5479 5.71299 14.6901 5.76821 14.5919 5.90932C14.5815 5.9251 14.6694 6.03729 14.7306 6.0741C14.9341 6.19769 14.984 6.39665 15.0349 6.61052C15.0659 6.74024 15.1228 6.88223 15.2125 6.97602C15.3642 7.13466 15.4978 7.29506 15.5529 7.51243C15.5822 7.62725 15.6503 7.69912 15.752 7.76837C15.9874 7.92876 16.2106 8.11108 16.4278 8.29602C16.5717 8.41873 16.4244 8.5055 16.3451 8.60717C16.4106 8.62032 16.4769 8.61331 16.4976 8.64135C16.7347 8.96478 17.0096 8.74127 17.2734 8.70709C17.5294 8.67291 17.7828 8.6396 18.0009 8.47745C18.0284 8.45642 18.0845 8.47482 18.1336 8.47482C18.1819 8.77809 18.1258 9.06207 17.9983 9.32853L17.9957 9.3259Z" fill="#0063FF"/>
</svg>
