
<svg width="22" height="22" viewBox="0 0 22 22" fill="none" xmlns="http://www.w3.org/2000/svg">
<path d="M5.89062 13.7601C6.02385 13.7189 6.17987 13.6698 6.34553 13.6181C6.17899 13.4016 6.02999 13.2071 5.88712 13.0212C5.69692 13.2658 5.72146 13.5024 5.89062 13.761V13.7601Z" fill="#0063FF"/>
<path d="M11 0C4.92502 0 0 4.92502 0 11C0 17.075 4.92502 22 11 22C17.075 22 22 17.075 22 11C22 4.92502 17.075 0 11 0ZM14.8539 16.9698C14.8496 17.1022 14.7531 17.1872 14.6287 17.1469C14.4113 17.0767 14.2036 17.0469 13.9801 17.1398C13.9336 17.1591 13.8074 17.0829 13.7741 17.0206C13.6786 16.8418 13.5488 16.7717 13.3508 16.7998C13.3052 16.8059 13.2359 16.7761 13.207 16.7393C13.1027 16.6069 13.0098 16.4658 12.9143 16.3265C12.895 16.2984 12.8713 16.2642 12.8722 16.2335C12.8775 16.0582 13.0501 16.039 13.1518 15.9601C13.1965 15.925 13.2938 15.9443 13.363 15.9583C13.4743 15.9802 13.5839 16.046 13.6935 16.0433C14.08 16.0355 14.4131 16.2169 14.7654 16.3273C14.8057 16.3396 14.8426 16.4167 14.8513 16.4684C14.8653 16.5552 14.8548 16.6464 14.8548 16.7349C14.8548 16.8138 14.8566 16.8918 14.8548 16.9707L14.8539 16.9698ZM18.4037 8.35649C18.331 8.46167 18.2653 8.57649 18.1741 8.66327C18.1277 8.70797 18.0225 8.729 17.9602 8.70972C17.8165 8.6659 17.6815 8.59052 17.5018 8.50813C17.5018 8.59928 17.4808 8.68255 17.5053 8.75004C17.6009 9.01124 17.5667 9.09187 17.2959 9.14271C17.0662 9.18566 16.8488 9.23036 16.7226 9.46701C16.6499 9.60375 16.4991 9.60024 16.3624 9.58797C16.0284 9.55729 15.9671 9.63968 15.996 9.96574C16.0214 10.248 15.8084 10.3759 15.6892 10.5635C15.6288 10.6582 15.5394 10.7353 15.4649 10.8212C15.3544 10.9483 15.2431 10.9448 15.1791 10.7984C15.0696 10.5451 14.9626 10.2892 14.8732 10.0288C14.8513 9.96486 14.8802 9.86582 14.9188 9.80271C15.0047 9.65896 15.1108 9.52749 15.1853 9.36008C15.1081 9.40829 15.0187 9.4451 14.9565 9.50821C14.8163 9.64845 14.6366 9.66685 14.4604 9.67912C14.2702 9.69227 14.1159 9.74574 13.9906 9.89825C13.8924 10.0183 13.7706 10.12 13.6602 10.2304L13.6672 10.2769C13.7329 10.2769 13.7986 10.2804 13.8635 10.276C13.9187 10.2725 13.9739 10.2532 14.0292 10.2524C14.2281 10.2488 14.2781 10.3172 14.2202 10.5118C14.1571 10.7248 14.0818 10.9351 14.0274 11.1508C13.9617 11.4102 13.7504 11.5645 13.6067 11.7678C13.5655 11.8265 13.5182 11.8826 13.4665 11.9326C13.4121 11.9852 13.3551 12.0553 13.2877 12.0728C13.0887 12.1254 13.0869 12.1167 12.9677 12.2963C13.0387 12.4524 13.136 12.5707 13.3271 12.5172C13.3884 12.4997 13.4603 12.4681 13.4963 12.419C13.7049 12.1342 13.9029 11.8414 14.1063 11.5522C14.1712 11.4602 14.328 11.4435 14.4087 11.525C14.5112 11.6284 14.6129 11.7354 14.6962 11.8537C14.7251 11.894 14.7181 11.9861 14.6918 12.0351C14.5428 12.32 14.3841 12.6005 14.2255 12.8801C14.2045 12.9169 14.1668 12.9493 14.13 12.9704C13.7969 13.1509 13.4577 13.3218 13.129 13.5103C12.9975 13.5857 12.9195 13.5445 12.8722 13.4331C12.8152 13.299 12.7276 13.2202 12.5856 13.1974C12.3568 13.1606 12.2455 13.0308 12.2315 12.7959C12.2236 12.6592 12.1745 12.5295 11.9834 12.5786C11.9545 12.5865 11.9168 12.5645 11.8818 12.5558C11.8633 12.597 11.8458 12.6382 11.8274 12.6794C12.0471 12.8073 12.0866 12.9578 11.9457 13.1308C12.0273 13.1912 12.1114 13.2473 12.1885 13.3122C12.2595 13.3718 12.3033 13.4419 12.2464 13.541C12.2113 13.6023 12.1824 13.6707 12.1649 13.739C12.1131 13.9354 11.951 14.0081 11.7924 14.0861C11.5478 14.2071 11.3278 14.4026 10.9807 14.3307C11.0815 14.4665 11.1586 14.5691 11.234 14.6734C11.2989 14.7628 11.3287 14.8478 11.2507 14.9547C11.1858 15.0433 11.1429 15.1502 11.0982 15.2519C11.0368 15.3904 10.9255 15.4316 10.7888 15.3351C10.7283 15.2922 10.6599 15.2598 10.5819 15.2159C10.6345 15.3912 10.6713 15.5543 10.7327 15.7059C10.7967 15.8619 10.7975 16.01 10.7511 16.1678C10.7397 16.2064 10.7537 16.2826 10.7791 16.2958C10.9772 16.3966 10.9991 16.5666 10.9807 16.7577C10.9781 16.7884 10.9807 16.8199 10.9807 16.8506C11.0789 16.883 11.1735 16.9032 11.2594 16.9435C11.5487 17.0802 11.8388 17.0575 12.1377 16.9812C12.2806 16.9444 12.4331 16.9356 12.5812 16.9339C12.625 16.9339 12.7074 17.0022 12.7057 17.0355C12.7013 17.096 12.6566 17.1951 12.6136 17.2038C12.3042 17.2696 11.9904 17.3581 11.6793 17.3563C11.4347 17.3546 11.1841 17.2503 10.9474 17.1609C10.6503 17.0478 10.3619 16.9084 10.0753 16.77C10.0122 16.7393 9.95785 16.67 9.92191 16.6061C9.80271 16.3904 9.68614 16.1722 9.58446 15.9478C9.55379 15.8803 9.55641 15.7813 9.58446 15.7129C9.59586 15.6849 9.71594 15.7033 9.78693 15.6998C9.80183 15.6998 9.81761 15.6963 9.82725 15.6954C9.7808 15.421 9.73434 15.1467 9.68701 14.8636C9.64231 14.8487 9.53625 14.8443 9.50295 14.7926C9.45387 14.7181 9.46263 14.6077 9.43721 14.5147C9.4153 14.4359 9.37936 14.3605 9.35044 14.2842C9.26805 14.3167 9.16813 14.3298 9.10677 14.3859C8.94988 14.5305 8.80614 14.6909 8.6659 14.8522C8.63347 14.889 8.61506 14.9582 8.62295 15.0065C8.67115 15.2983 8.44677 15.4561 8.30478 15.6472C8.22502 15.7541 8.10582 15.712 8.05323 15.5674C7.93402 15.2422 7.81307 14.9171 7.71315 14.5849C7.62988 14.307 7.41865 14.1457 7.2039 14.0011C7.10661 13.9354 6.94446 13.9678 6.84279 13.9582C6.80948 14.0563 6.79721 14.1405 6.75602 14.2071C6.66749 14.3508 6.56669 14.4867 6.46677 14.6226C6.44398 14.6532 6.40279 14.6716 6.36861 14.6927C6.0259 14.9022 5.649 15.024 5.26422 15.1257C5.15466 15.1546 5.08717 15.0818 5.06526 14.9986C4.93466 14.4849 4.59458 14.0861 4.34303 13.6382C4.30797 13.576 4.2957 13.4901 4.30096 13.4174C4.3141 13.2596 4.34741 13.1036 4.36932 12.9467C4.38422 12.8415 4.33952 12.8003 4.22821 12.7959C4.07131 12.7889 3.91179 12.7705 3.76016 12.7311C3.70143 12.7162 3.63307 12.6364 3.61904 12.5742C3.58135 12.4094 3.56996 12.2385 3.55068 12.0702C3.53665 11.9466 3.58924 11.88 3.71896 11.8879C3.87849 11.8975 4.03713 11.9142 4.19665 11.9186C4.39825 11.9238 4.60072 11.9194 4.83562 11.9194C4.7839 11.8563 4.75849 11.8099 4.7208 11.781C4.57267 11.6705 4.53586 11.5478 4.61737 11.3708C4.72693 11.1315 4.7953 10.8738 4.90924 10.6371C5.00829 10.4329 5.01355 10.2243 4.99426 10.0139C4.97498 9.81147 5.09243 9.71068 5.21251 9.58183C5.49737 9.27506 5.89267 9.19618 6.25466 9.06558C6.45363 8.99371 6.48869 8.88853 6.51323 8.72375C6.55004 8.47657 6.59036 8.2294 6.64207 7.98574C6.65347 7.93139 6.71132 7.87618 6.76215 7.84375C6.88135 7.76661 7.00669 7.69912 7.13379 7.63514C7.22231 7.59044 7.26701 7.53873 7.20829 7.44143C7.01633 7.12414 7.18112 6.83753 7.30382 6.5588C7.40375 6.33092 7.6588 6.25641 7.87442 6.37737C7.98311 6.43785 8.05761 6.43697 8.16454 6.37299C8.38279 6.24151 8.61331 6.13108 8.86398 5.9996C8.8412 5.8804 8.92622 5.7796 9.06558 5.68757C9.22422 5.58239 9.35132 5.43163 9.50733 5.32207C9.5941 5.26159 9.7098 5.23705 9.81586 5.21163C9.90964 5.18884 10.0104 5.19498 10.1051 5.17394C10.1489 5.1643 10.1936 5.12661 10.2234 5.09068C10.3216 4.97147 10.4127 4.84789 10.5057 4.7243C10.5784 4.62789 10.6643 4.61825 10.7651 4.6761C10.9728 4.7953 11.1832 4.90924 11.3865 5.03546C11.4426 5.07052 11.49 5.1345 11.5198 5.19498C11.5767 5.31418 11.6355 5.43689 11.6609 5.56486C11.6767 5.64375 11.6469 5.74104 11.6109 5.81729C11.575 5.89442 11.5066 5.95578 11.4269 6.0557C11.7126 6.04869 11.9747 6.0443 12.1841 6.23275C12.2928 6.00311 12.3559 6.05394 12.5058 6.09339C12.7469 6.15649 12.9046 6.30112 12.9721 6.54478C12.9879 6.60263 13.0273 6.65347 13.065 6.72359C13.2167 6.53514 13.392 6.6596 13.5602 6.66749C13.6032 6.66924 13.6751 6.64645 13.6873 6.61665C13.7837 6.37825 13.9441 6.34757 14.1817 6.39841C14.4823 6.46327 14.7751 6.51936 14.9705 6.78494C15.0301 6.86645 15.1055 6.88661 15.2002 6.87873C15.2834 6.87171 15.3684 6.88486 15.4517 6.87522C15.5578 6.86295 15.6261 6.90414 15.6551 7.00231C15.7094 7.1855 15.8567 7.22056 16.0135 7.22056C16.117 7.22056 16.2327 7.20566 16.3221 7.1592C16.5158 7.05753 16.7025 7.12414 16.8944 7.14255C17.2582 7.17761 17.4939 7.4502 17.7814 7.62462C17.9988 7.75697 18.1864 7.93665 18.3871 8.09618C18.4844 8.17418 18.4695 8.26446 18.4073 8.35474L18.4037 8.35649ZM12.6461 15.5175C12.6057 15.5753 12.5505 15.6498 12.4918 15.6586C12.4462 15.6656 12.3375 15.5753 12.3428 15.542C12.3849 15.2852 12.157 15.1896 12.05 15.0249C11.9896 14.9311 11.8993 14.5051 11.9694 14.4201C12.0071 14.3745 12.0956 14.3482 12.1578 14.3526C12.1982 14.3552 12.2709 14.435 12.2657 14.4692C12.2166 14.7584 12.3682 14.946 12.5584 15.1283C12.6215 15.1888 12.6399 15.2948 12.6785 15.379C12.6688 15.3833 12.6583 15.3877 12.6487 15.393C12.6487 15.4351 12.6653 15.4885 12.6452 15.5166L12.6461 15.5175ZM12.2779 16.0688C12.3796 16.1722 12.3647 16.2931 12.2394 16.3598C12.0851 16.4413 11.9352 16.5438 11.7704 16.5859C11.6346 16.6201 11.4803 16.5833 11.3348 16.5719C11.1595 16.5578 11.0526 16.4711 11.0429 16.2853C11.0429 16.2774 11.0272 16.2704 11.0245 16.2607C10.9132 15.9005 10.9194 15.9128 11.2612 15.7445C11.419 15.6673 11.5548 15.5385 11.6872 15.4193C11.7871 15.329 11.8598 15.3316 11.951 15.4245C12.1429 15.6182 12.1456 15.6156 12.0474 15.8514C12.1298 15.9285 12.2069 15.996 12.2788 16.0696L12.2779 16.0688Z" fill="#0063FF"/>
</svg>
