<svg width="18" height="21" viewBox="0 0 18 21" fill="none" xmlns="http://www.w3.org/2000/svg">
<g clip-path="url(#clip0_992_11039)">
<path d="M4.21551 3.61777C4.03517 3.48728 3.8358 3.38558 3.62474 3.31622C3.40252 3.2433 3.17024 3.20629 2.93659 3.20656C2.47856 3.20464 2.0314 3.34774 1.65823 3.61585C0.724473 4.28667 0.476144 5.57897 1.07507 6.56478L1.94735 8.00018L2.719 9.27027C2.79271 9.39171 2.95046 9.42982 3.07096 9.35553C3.1055 9.33414 3.13433 9.30509 3.15555 9.27027L3.92719 8.00018L4.79947 6.56478C5.39759 5.58089 5.14899 4.28859 4.21551 3.61777ZM2.93714 6.30188C2.44429 6.30188 2.04473 5.89944 2.04446 5.4027C2.04446 4.90596 2.44374 4.50325 2.93659 4.50297C3.42944 4.50297 3.829 4.90541 3.82927 5.40215V5.4027C3.82927 5.89917 3.42972 6.30188 2.93714 6.30188Z" fill="#00042D"/>
<path d="M11.365 0.411229C11.1847 0.280739 10.9853 0.179033 10.7743 0.109675C10.5521 0.0367538 10.3198 1.90505e-05 10.0861 1.90505e-05C9.6281 -0.00189993 9.18094 0.141201 8.80777 0.40931C7.8732 1.08205 7.6246 2.37435 8.22298 3.36016L9.09526 4.79555L9.86718 6.06565C9.94171 6.18682 10.0995 6.2241 10.2194 6.14926C10.2531 6.12815 10.2814 6.09964 10.3024 6.06565L11.074 4.79555L11.9493 3.36016C12.5477 2.37435 12.2991 1.08205 11.365 0.411229ZM10.0867 3.09534C9.59383 3.09561 9.194 2.69317 9.19373 2.19643C9.19345 1.69969 9.59274 1.2967 10.0856 1.29643C10.5784 1.29615 10.978 1.69832 10.9785 2.19506C10.9791 2.6918 10.5798 3.09479 10.087 3.09534C10.0867 3.09534 10.0864 3.09534 10.0861 3.09534H10.0867Z" fill="#00042D"/>
<path d="M8.70163 12.568C8.52103 12.4378 8.32193 12.336 8.11086 12.2664C7.88865 12.1938 7.65636 12.1568 7.42272 12.1568C6.96468 12.1548 6.51753 12.2979 6.14435 12.5658C5.20978 13.2391 4.96145 14.5316 5.56038 15.5185L6.43267 16.9539L7.20458 18.2238C7.27884 18.3449 7.43632 18.3825 7.55654 18.3076C7.59054 18.2865 7.6191 18.2577 7.63977 18.2238L8.41278 16.9526L9.28506 15.5185C9.88399 14.5316 9.63675 13.2391 8.70163 12.568ZM7.42327 15.2523C6.93041 15.2523 6.53086 14.8496 6.53086 14.3529C6.53086 13.8562 6.93041 13.4534 7.42327 13.4534C7.91612 13.4534 8.31568 13.8562 8.31568 14.3529C8.31568 14.8496 7.91612 15.2523 7.42327 15.2523Z" fill="#00042D"/>
<path d="M16.5287 7.66025C16.3481 7.52976 16.1488 7.42806 15.9377 7.3587C15.7155 7.28578 15.4832 7.24877 15.2495 7.24904C14.7915 7.24712 14.3443 7.39022 13.9712 7.65833C13.0371 8.33107 12.7885 9.62419 13.3875 10.6092L14.2611 12.0446L15.0328 13.3147C15.1073 13.4358 15.265 13.4731 15.385 13.3983C15.4187 13.3772 15.447 13.3487 15.468 13.3147L16.2396 12.0446L17.1119 10.6092C17.7108 9.62419 17.4625 8.33107 16.5287 7.66025ZM15.2504 10.3444C14.7575 10.3444 14.3579 9.94165 14.3579 9.44491C14.3579 8.94816 14.7575 8.54545 15.2504 8.54545C15.7432 8.54545 16.1428 8.94816 16.1428 9.44491C16.1428 9.94165 15.7432 10.3444 15.2506 10.3444C15.2504 10.3444 15.2498 10.3444 15.2495 10.3444H15.2504Z" fill="#00042D"/>
<path d="M10.0853 6.96191L3.30154 10.0457C3.07932 10.1466 2.93652 10.3695 2.93652 10.6151C2.93652 10.8882 3.1125 11.1297 3.37117 11.2114L5.40377 11.8531C5.69372 11.6149 6.02582 11.4268 6.3873 11.3021L4.10691 10.5814L10.0856 7.86137V6.96191H10.0853Z" fill="#00042D"/>
<path d="M14.8164 14.0814L10.0908 12.5742C10.2897 12.8763 10.439 13.2143 10.5279 13.5762L14.2727 14.7704L7.42285 19.1645V20.1391L14.9622 15.3033C15.1409 15.1887 15.2492 14.9899 15.2492 14.7761V14.6766C15.2492 14.4041 15.074 14.1631 14.8164 14.0809V14.0814Z" fill="#00042D"/>
</g>
<defs>
<clipPath id="clip0_992_11039">
<rect width="16.6865" height="20.1389" fill="white" transform="translate(0.75)"/>
</clipPath>
</defs>
</svg>
