<?xml version="1.0" encoding="utf-8"?>
<!-- Generator: Adobe Illustrator 27.0.1, SVG Export Plug-In . SVG Version: 6.00 Build 0)  -->
<svg version="1.1" id="Camada_1" xmlns="http://www.w3.org/2000/svg" xmlns:xlink="http://www.w3.org/1999/xlink" x="0px" y="0px"
	 viewBox="0 0 306 239.1" style="enable-background:new 0 0 306 239.1;" xml:space="preserve">
<style type="text/css">
	.st0{fill:#F4F5F6;}
	.st1{fill:none;stroke:#919EAB;stroke-opacity:0.2;stroke-dasharray:3,3;}
	.st2{fill:#212B36;}
	.st3{fill:#637381;}
	.st4{fill:#FFFFFF;}
	.st5{fill:#00B8D9;}
	.st6{opacity:0.16;fill:#006C9C;enable-background:new    ;}
</style>
<path class="st0" d="M0.5,20.6c0-11,9-20,20-20h265c11,0,20,9,20,20v218H0.5V20.6z"/>
<path class="st1" d="M1,20.6c0-0.5,0-1,0.1-1.5l-0.5,0C0.7,18,0.8,17,1.1,15.9l0.5,0.1c0.2-1,0.6-2,0.9-2.9L2,13
	c0.4-1,0.9-1.9,1.4-2.8l0.4,0.3C4.4,9.6,5,8.7,5.7,8L5.3,7.6C6,6.8,6.7,6.1,7.5,5.4l0.3,0.4C8.6,5.1,9.5,4.5,10.3,4l-0.3-0.4
	c0.9-0.5,1.8-1,2.8-1.4l0.2,0.5C14,2.2,15,1.9,16,1.7l-0.1-0.5c1-0.2,2-0.4,3.1-0.5l0,0.5c0.5,0,1-0.1,1.5-0.1H22V0.6h3v0.5h3V0.6h3
	v0.5h3V0.6h3v0.5h3V0.6h3v0.5h3V0.6h3v0.5h3V0.6h3v0.5h3V0.6h3v0.5h3V0.6h3v0.5h3V0.6h3v0.5h3V0.6h3v0.5h3V0.6h3v0.5h3V0.6h3v0.5h3
	V0.6h3v0.5h3V0.6h3v0.5h3V0.6h3v0.5h3V0.6h3v0.5h3V0.6h3v0.5h3V0.6h3v0.5h3V0.6h3v0.5h3V0.6h3v0.5h3V0.6h3v0.5h3V0.6h3v0.5h3V0.6h3
	v0.5h3V0.6h3v0.5h3V0.6h3v0.5h3V0.6h3v0.5h3V0.6h3v0.5h3V0.6h3v0.5h3V0.6h3v0.5h3V0.6h3v0.5h3V0.6h3v0.5h3V0.6h3v0.5h3V0.6h3v0.5h3
	V0.6h3v0.5h3V0.6h3v0.5h3V0.6h3v0.5h3V0.6h3v0.5h3V0.6h3v0.5h3V0.6h3v0.5h3V0.6h3v0.5h3V0.6h3v0.5h3V0.6h3v0.5h3V0.6h3v0.5h3V0.6h3
	v0.5h1.5c0.5,0,1,0,1.5,0.1l0-0.5c1.1,0.1,2.1,0.2,3.1,0.5l-0.1,0.5c1,0.2,2,0.6,2.9,0.9l0.2-0.5c1,0.4,1.9,0.9,2.8,1.4L295.7,4
	c0.9,0.5,1.7,1.1,2.5,1.8l0.3-0.4c0.8,0.7,1.5,1.4,2.2,2.2L300.3,8c0.7,0.8,1.3,1.6,1.8,2.5l0.4-0.3c0.5,0.9,1,1.8,1.4,2.8l-0.5,0.2
	c0.4,0.9,0.7,1.9,0.9,2.9l0.5-0.1c0.2,1,0.4,2,0.5,3.1l-0.5,0c0,0.5,0.1,1,0.1,1.5v1.5h0.5v3H305v3h0.5v3H305v3h0.5v3H305v3h0.5v3
	H305v3h0.5v3H305v3h0.5v3H305v3h0.5v3H305v3h0.5v3H305v3h0.5v3H305v3h0.5v3H305v3h0.5v3H305v3h0.5v3H305v3h0.5v3H305v3h0.5v3H305v3
	h0.5v3H305v3h0.5v3H305v3h0.5v3H305v3h0.5v3H305v3h0.5v3H305v3h0.5v3H305v3h0.5v3H305v3h0.5v3H305v3h0.5v3H305v3h0.5v3H305v3h0.5v3
	H305v3h0.5v3H305v3h0.5v3H305v3h0.5v3H305v3h0.5v3H305v3h0.5v3H305v3h0.5v3H305v3h0.5v3H305v3h0.5v3H305v3h0.5v3H305v3h0.5v3H305v3
	h0.5v3H305v1h-1v0.5h-3v-0.5h-3v0.5h-3v-0.5h-3v0.5h-3v-0.5h-3v0.5h-3v-0.5h-3v0.5h-3v-0.5h-3v0.5h-3v-0.5h-3v0.5h-3v-0.5h-3v0.5h-3
	v-0.5h-3v0.5h-3v-0.5h-3v0.5h-3v-0.5h-3v0.5h-3v-0.5h-3v0.5h-3v-0.5h-3v0.5h-3v-0.5h-3v0.5h-3v-0.5h-3v0.5h-3v-0.5h-3v0.5h-3v-0.5
	h-3v0.5h-3v-0.5h-3v0.5h-3v-0.5h-3v0.5h-3v-0.5h-3v0.5h-3v-0.5h-3v0.5h-3v-0.5h-3v0.5h-3v-0.5h-3v0.5h-3v-0.5h-3v0.5h-3v-0.5h-3v0.5
	h-3v-0.5h-3v0.5h-3v-0.5h-3v0.5h-3v-0.5h-3v0.5h-3v-0.5h-3v0.5h-3v-0.5h-3v0.5h-3v-0.5h-3v0.5h-3v-0.5h-3v0.5h-3v-0.5h-3v0.5h-3
	v-0.5h-3v0.5h-3v-0.5h-3v0.5h-3v-0.5h-3v0.5h-3v-0.5h-3v0.5h-3v-0.5h-3v0.5h-3v-0.5h-3v0.5h-3v-0.5h-3v0.5h-3v-0.5h-3v0.5h-3v-0.5
	h-3v0.5h-3v-0.5h-3v0.5h-3v-0.5h-3v0.5h-3v-0.5h-3v0.5h-3v-0.5h-3v0.5h-3v-0.5h-3v0.5h-3v-0.5h-3v0.5h-3v-0.5h-3v0.5h-3v-0.5h-3v0.5
	H8v-0.5H5v0.5H2v-0.5H1v-1H0.5v-3H1v-3H0.5v-3H1v-3H0.5v-3H1v-3H0.5v-3H1v-3H0.5v-3H1v-3H0.5v-3H1v-3H0.5v-3H1v-3H0.5v-3H1v-3H0.5
	v-3H1v-3H0.5v-3H1v-3H0.5v-3H1v-3H0.5v-3H1v-3H0.5v-3H1v-3H0.5v-3H1v-3H0.5v-3H1v-3H0.5v-3H1v-3H0.5v-3H1v-3H0.5v-3H1v-3H0.5v-3H1
	v-3H0.5v-3H1v-3H0.5v-3H1v-3H0.5v-3H1v-3H0.5v-3H1v-3H0.5v-3H1v-3H0.5v-3H1v-3H0.5v-3H1v-3H0.5v-3H1v-3H0.5v-3H1v-3H0.5v-3H1v-3H0.5
	v-3H1v-3H0.5v-3H1v-3H0.5v-3H1v-3H0.5v-3H1v-3H0.5v-3H1v-3H0.5v-3H1v-3H0.5v-3H1V20.6z"/>
<path class="st2" d="M78.2,150.5c0.1,0,0.2,0,0.4,0c0.2,0,0.5,0,0.8,0c0.3,0,0.6,0,1,0c0.3,0,0.6,0,0.8,0c1.2,0,2.2,0.2,3,0.7
	c0.8,0.4,1.3,1,1.7,1.7c0.4,0.7,0.5,1.6,0.5,2.6c0,1.1-0.2,2-0.6,2.7c-0.4,0.8-1,1.3-1.8,1.8c-0.8,0.4-1.8,0.6-3,0.6h-3V150.5z
	 M80.2,152.1v6.8h0.9c0.6,0,1.1-0.1,1.6-0.3c0.5-0.2,0.9-0.6,1.1-1.1c0.3-0.5,0.4-1.2,0.4-2c0-0.8-0.1-1.4-0.4-1.9
	c-0.3-0.5-0.6-0.9-1.1-1.1c-0.5-0.2-1-0.3-1.7-0.3H80.2z M90.1,153.4v7.2h-2v-7.2H90.1z M90.1,150.5v1.8h-2v-1.8H90.1z M92,160.6
	v-7.2h2v1c0.2-0.3,0.5-0.6,0.9-0.8c0.4-0.2,0.8-0.3,1.4-0.3c0.2,0,0.5,0,0.8,0.1c0.3,0.1,0.5,0.2,0.7,0.4c0.2,0.2,0.4,0.4,0.6,0.6
	c0.2-0.3,0.5-0.6,0.9-0.8c0.4-0.2,0.8-0.3,1.3-0.3c0.3,0,0.5,0,0.8,0.1c0.3,0.1,0.5,0.2,0.8,0.4c0.2,0.2,0.4,0.5,0.6,0.8
	c0.1,0.3,0.2,0.7,0.2,1.2v4.8h-2v-4.5c0-0.3-0.1-0.5-0.2-0.7c-0.1-0.2-0.3-0.3-0.4-0.4c-0.2-0.1-0.4-0.1-0.6-0.1
	c-0.2,0-0.4,0-0.6,0.1c-0.2,0.1-0.3,0.2-0.5,0.3c-0.1,0.2-0.2,0.4-0.2,0.6v4.6h-2v-4.7c0-0.2-0.1-0.4-0.2-0.6
	c-0.1-0.1-0.3-0.3-0.4-0.3c-0.2-0.1-0.3-0.1-0.5-0.1c-0.2,0-0.4,0-0.6,0.1c-0.2,0.1-0.3,0.2-0.5,0.4c-0.1,0.2-0.2,0.4-0.2,0.6v4.6
	H92z M106.2,157.5c0,0.4,0.1,0.7,0.2,1c0.1,0.3,0.3,0.5,0.5,0.6c0.2,0.1,0.5,0.2,0.8,0.2c0.3,0,0.7-0.1,0.9-0.2
	c0.3-0.1,0.4-0.4,0.6-0.7h1.8c-0.1,0.5-0.3,1-0.6,1.3c-0.3,0.4-0.7,0.6-1.2,0.8c-0.5,0.2-1,0.3-1.5,0.3c-0.7,0-1.3-0.1-1.9-0.4
	c-0.5-0.3-1-0.7-1.3-1.3c-0.3-0.6-0.5-1.2-0.5-1.9c0-0.7,0.1-1.4,0.4-2c0.3-0.6,0.7-1,1.2-1.4c0.5-0.3,1.2-0.5,1.9-0.5
	c0.7,0,1.4,0.2,1.9,0.5c0.5,0.3,0.9,0.7,1.1,1.3c0.3,0.6,0.4,1.2,0.4,1.9v0.6H106.2z M106.2,156.2h3c0-0.3-0.1-0.6-0.2-0.8
	c-0.1-0.2-0.3-0.4-0.5-0.6c-0.2-0.1-0.5-0.2-0.8-0.2c-0.3,0-0.6,0.1-0.8,0.2c-0.2,0.1-0.4,0.3-0.5,0.6
	C106.2,155.7,106.2,156,106.2,156.2z M112.4,160.6v-7.2h2v1c0.1-0.2,0.3-0.3,0.4-0.5c0.2-0.2,0.4-0.3,0.7-0.4c0.3-0.1,0.6-0.2,1-0.2
	c0.4,0,0.9,0.1,1.2,0.3c0.4,0.2,0.7,0.4,0.9,0.8c0.2,0.4,0.4,0.9,0.4,1.4v4.8h-2v-4.5c0-0.4-0.1-0.7-0.3-0.9
	c-0.2-0.2-0.5-0.3-0.9-0.3c-0.2,0-0.4,0-0.7,0.1c-0.2,0.1-0.4,0.2-0.5,0.4c-0.1,0.2-0.2,0.4-0.2,0.6v4.6H112.4z M123.5,160.8
	c-0.5,0-1-0.1-1.5-0.2c-0.5-0.2-0.9-0.4-1.2-0.8c-0.3-0.4-0.5-0.8-0.6-1.4h1.8c0.1,0.3,0.2,0.5,0.3,0.6c0.2,0.1,0.3,0.3,0.6,0.3
	c0.2,0.1,0.4,0.1,0.6,0.1c0.4,0,0.7-0.1,0.9-0.2c0.2-0.1,0.4-0.3,0.4-0.6c0-0.2-0.1-0.4-0.2-0.5c-0.1-0.1-0.4-0.2-0.7-0.3l-1.3-0.3
	c-0.6-0.1-1.2-0.4-1.5-0.7c-0.4-0.3-0.6-0.8-0.6-1.4c0-0.4,0.1-0.8,0.3-1.2c0.2-0.3,0.6-0.6,1-0.8c0.5-0.2,1-0.3,1.7-0.3
	c0.9,0,1.6,0.2,2.1,0.6c0.5,0.4,0.8,0.9,0.8,1.7h-1.7c-0.1-0.3-0.2-0.5-0.4-0.6c-0.2-0.2-0.5-0.2-0.8-0.2c-0.4,0-0.6,0.1-0.9,0.2
	c-0.2,0.1-0.3,0.3-0.3,0.6c0,0.2,0.1,0.3,0.3,0.5c0.2,0.1,0.5,0.2,0.9,0.3l1.2,0.3c0.4,0.1,0.7,0.2,1,0.4c0.3,0.2,0.5,0.4,0.6,0.6
	c0.1,0.2,0.2,0.4,0.3,0.6c0.1,0.2,0.1,0.4,0.1,0.5c0,0.5-0.1,0.9-0.4,1.2c-0.3,0.3-0.6,0.6-1.1,0.8
	C124.7,160.7,124.1,160.8,123.5,160.8z M131.1,160.8c-0.7,0-1.3-0.2-1.9-0.5c-0.5-0.3-0.9-0.7-1.2-1.3c-0.3-0.6-0.4-1.2-0.4-2
	s0.1-1.4,0.4-2c0.3-0.6,0.7-1,1.2-1.3c0.5-0.3,1.1-0.5,1.9-0.5c0.7,0,1.3,0.2,1.9,0.5c0.5,0.3,0.9,0.7,1.2,1.3
	c0.3,0.6,0.4,1.2,0.4,2c0,0.7-0.1,1.4-0.4,1.9c-0.3,0.6-0.7,1-1.2,1.3C132.5,160.6,131.8,160.8,131.1,160.8z M131.1,159.2
	c0.4,0,0.6-0.1,0.9-0.3c0.2-0.2,0.4-0.5,0.5-0.8c0.1-0.3,0.2-0.7,0.2-1.1c0-0.4,0-0.7-0.1-1.1c-0.1-0.3-0.2-0.6-0.5-0.8
	c-0.2-0.2-0.5-0.3-0.9-0.3c-0.4,0-0.7,0.1-0.9,0.3c-0.2,0.2-0.4,0.5-0.5,0.8c-0.1,0.3-0.2,0.7-0.2,1.1c0,0.4,0,0.7,0.1,1.1
	c0.1,0.3,0.2,0.6,0.5,0.8C130.4,159.1,130.7,159.2,131.1,159.2z M133.6,151.7c-0.1,0.1-0.3,0.2-0.6,0.3c-0.2,0.1-0.5,0.2-0.8,0.2
	c-0.3,0-0.5,0-0.7-0.1c-0.2-0.1-0.4-0.1-0.6-0.2c-0.2-0.1-0.4-0.1-0.7-0.1c-0.2,0-0.4,0-0.6,0.1c-0.2,0.1-0.3,0.2-0.5,0.3l-0.3-1.1
	c0.2-0.2,0.4-0.3,0.6-0.4c0.2-0.1,0.5-0.2,0.8-0.2c0.3,0,0.5,0,0.7,0.1c0.2,0.1,0.5,0.1,0.7,0.2c0.2,0.1,0.4,0.1,0.6,0.1
	c0.2,0,0.5-0.1,0.7-0.2c0.2-0.1,0.4-0.2,0.5-0.3L133.6,151.7z M137.7,157.5c0,0.4,0.1,0.7,0.2,1c0.1,0.3,0.3,0.5,0.5,0.6
	c0.2,0.1,0.5,0.2,0.8,0.2c0.4,0,0.7-0.1,0.9-0.2c0.3-0.1,0.5-0.4,0.6-0.7h1.8c-0.1,0.5-0.3,1-0.6,1.3c-0.3,0.4-0.7,0.6-1.2,0.8
	c-0.5,0.2-1,0.3-1.5,0.3c-0.7,0-1.3-0.1-1.9-0.4c-0.5-0.3-1-0.7-1.3-1.3c-0.3-0.6-0.5-1.2-0.5-1.9c0-0.7,0.1-1.4,0.4-2
	c0.3-0.6,0.7-1,1.2-1.4c0.5-0.3,1.2-0.5,1.9-0.5s1.4,0.2,1.9,0.5c0.5,0.3,0.9,0.7,1.1,1.3c0.3,0.6,0.4,1.2,0.4,1.9v0.6H137.7z
	 M137.6,156.2h3c0-0.3-0.1-0.6-0.2-0.8c-0.1-0.2-0.3-0.4-0.5-0.6c-0.2-0.1-0.5-0.2-0.8-0.2c-0.3,0-0.6,0.1-0.8,0.2
	c-0.2,0.1-0.4,0.3-0.5,0.6C137.7,155.7,137.6,156,137.6,156.2z M146.8,160.8c-0.5,0-1-0.1-1.5-0.2c-0.5-0.2-0.9-0.4-1.2-0.8
	c-0.3-0.4-0.5-0.8-0.6-1.4h1.8c0.1,0.3,0.2,0.5,0.3,0.6c0.2,0.1,0.3,0.3,0.6,0.3c0.2,0.1,0.4,0.1,0.6,0.1c0.4,0,0.7-0.1,0.9-0.2
	c0.2-0.1,0.4-0.3,0.4-0.6c0-0.2-0.1-0.4-0.2-0.5c-0.1-0.1-0.4-0.2-0.7-0.3l-1.3-0.3c-0.6-0.1-1.2-0.4-1.5-0.7
	c-0.4-0.3-0.6-0.8-0.6-1.4c0-0.4,0.1-0.8,0.3-1.2c0.2-0.3,0.6-0.6,1-0.8c0.5-0.2,1-0.3,1.7-0.3c0.9,0,1.6,0.2,2.1,0.6
	c0.5,0.4,0.8,0.9,0.8,1.7H148c-0.1-0.3-0.2-0.5-0.4-0.6c-0.2-0.2-0.5-0.2-0.8-0.2c-0.4,0-0.6,0.1-0.9,0.2c-0.2,0.1-0.3,0.3-0.3,0.6
	c0,0.2,0.1,0.3,0.3,0.5c0.2,0.1,0.5,0.2,0.9,0.3l1.2,0.3c0.4,0.1,0.7,0.2,1,0.4c0.3,0.2,0.5,0.4,0.6,0.6c0.1,0.2,0.2,0.4,0.3,0.6
	c0.1,0.2,0.1,0.4,0.1,0.5c0,0.5-0.1,0.9-0.4,1.2c-0.3,0.3-0.6,0.6-1.1,0.8C147.9,160.7,147.4,160.8,146.8,160.8z M156.7,160.8
	c-1,0-1.7-0.3-2.3-1c-0.5-0.7-0.8-1.6-0.8-2.8c0-0.8,0.1-1.4,0.3-2c0.2-0.6,0.5-1,1-1.3c0.4-0.3,1-0.5,1.6-0.5c0.3,0,0.5,0,0.7,0.1
	c0.2,0.1,0.4,0.1,0.6,0.2c0.2,0.1,0.3,0.2,0.5,0.4s0.3,0.3,0.3,0.4v-4.1h2.1v10.4h-1.5l-0.2-1.5c-0.1,0.2-0.2,0.4-0.3,0.6
	c-0.1,0.2-0.3,0.4-0.4,0.5c-0.2,0.2-0.4,0.3-0.7,0.4C157.4,160.7,157.1,160.8,156.7,160.8z M157.2,159.3c0.5,0,0.9-0.2,1.1-0.5
	c0.3-0.4,0.4-1,0.4-1.8c0-0.5-0.1-0.9-0.2-1.2c-0.1-0.3-0.3-0.6-0.5-0.7c-0.2-0.2-0.5-0.2-0.8-0.2c-0.4,0-0.8,0.2-1.1,0.5
	c-0.3,0.3-0.4,0.9-0.4,1.7c0,0.8,0.1,1.4,0.4,1.8C156.3,159.1,156.7,159.3,157.2,159.3z M164.6,160.8c-0.5,0-0.9-0.1-1.2-0.3
	c-0.4-0.2-0.7-0.4-0.9-0.7c-0.2-0.3-0.3-0.7-0.3-1.2c0-0.8,0.3-1.4,0.9-1.8c0.6-0.4,1.5-0.6,2.8-0.6l0.9,0v-0.4
	c0-0.3-0.1-0.6-0.3-0.8c-0.2-0.2-0.5-0.3-0.9-0.3c-0.3,0-0.6,0.1-0.9,0.2c-0.3,0.1-0.4,0.4-0.5,0.7h-1.7c0-0.5,0.2-1,0.5-1.3
	c0.3-0.3,0.6-0.6,1.1-0.8c0.5-0.2,1-0.3,1.6-0.3c0.7,0,1.3,0.1,1.8,0.3c0.4,0.2,0.8,0.4,1,0.8c0.2,0.3,0.3,0.7,0.3,1.2v5.1H167
	l-0.2-1.2c-0.2,0.5-0.6,0.9-0.9,1.1C165.6,160.7,165.1,160.8,164.6,160.8z M165.3,159.4c0.2,0,0.4,0,0.5-0.1
	c0.2-0.1,0.3-0.2,0.5-0.3c0.1-0.1,0.3-0.2,0.3-0.4c0.1-0.1,0.1-0.3,0.1-0.4v-1.1l-0.7,0c-0.3,0-0.7,0-1,0.1
	c-0.3,0.1-0.5,0.2-0.7,0.4c-0.2,0.2-0.3,0.4-0.3,0.7c0,0.3,0.1,0.6,0.4,0.8C164.7,159.3,165,159.4,165.3,159.4z M175.6,153.4v7.2h-2
	v-7.2H175.6z M175.6,150.5v1.8h-2v-1.8H175.6z M177.5,160.6v-7.2h2v1c0.2-0.3,0.5-0.6,0.9-0.8c0.4-0.2,0.8-0.3,1.4-0.3
	c0.2,0,0.5,0,0.8,0.1c0.3,0.1,0.5,0.2,0.7,0.4c0.2,0.2,0.4,0.4,0.6,0.6c0.2-0.3,0.5-0.6,0.9-0.8c0.4-0.2,0.8-0.3,1.3-0.3
	c0.3,0,0.5,0,0.8,0.1c0.3,0.1,0.5,0.2,0.8,0.4c0.2,0.2,0.4,0.5,0.6,0.8c0.1,0.3,0.2,0.7,0.2,1.2v4.8h-2v-4.5c0-0.3-0.1-0.5-0.2-0.7
	c-0.1-0.2-0.3-0.3-0.4-0.4c-0.2-0.1-0.4-0.1-0.6-0.1c-0.2,0-0.4,0-0.6,0.1c-0.2,0.1-0.3,0.2-0.5,0.3c-0.1,0.2-0.2,0.4-0.2,0.6v4.6
	h-2v-4.7c0-0.2-0.1-0.4-0.2-0.6c-0.1-0.1-0.3-0.3-0.4-0.3c-0.2-0.1-0.3-0.1-0.5-0.1c-0.2,0-0.4,0-0.6,0.1c-0.2,0.1-0.3,0.2-0.5,0.4
	c-0.1,0.2-0.2,0.4-0.2,0.6v4.6H177.5z M192.1,160.8c-0.5,0-0.9-0.1-1.2-0.3c-0.4-0.2-0.7-0.4-0.9-0.7c-0.2-0.3-0.3-0.7-0.3-1.2
	c0-0.8,0.3-1.4,0.9-1.8c0.6-0.4,1.5-0.6,2.8-0.6l0.9,0v-0.4c0-0.3-0.1-0.6-0.3-0.8c-0.2-0.2-0.5-0.3-0.9-0.3c-0.3,0-0.6,0.1-0.9,0.2
	c-0.3,0.1-0.4,0.4-0.5,0.7h-1.7c0-0.5,0.2-1,0.5-1.3c0.3-0.3,0.6-0.6,1.1-0.8c0.5-0.2,1-0.3,1.6-0.3c0.7,0,1.3,0.1,1.8,0.3
	c0.4,0.2,0.8,0.4,1,0.8c0.2,0.3,0.3,0.7,0.3,1.2v5.1h-1.7l-0.2-1.2c-0.2,0.5-0.6,0.9-0.9,1.1C193,160.7,192.6,160.8,192.1,160.8z
	 M192.7,159.4c0.2,0,0.4,0,0.5-0.1c0.2-0.1,0.3-0.2,0.5-0.3c0.1-0.1,0.3-0.2,0.3-0.4c0.1-0.1,0.1-0.3,0.1-0.4v-1.1l-0.7,0
	c-0.3,0-0.7,0-1,0.1c-0.3,0.1-0.5,0.2-0.7,0.4c-0.2,0.2-0.3,0.4-0.3,0.7c0,0.3,0.1,0.6,0.4,0.8C192.1,159.3,192.4,159.4,192.7,159.4
	z M201.3,163c-1.3,0-2.3-0.2-2.9-0.5c-0.7-0.3-1-0.8-1-1.3c0-0.2,0.1-0.5,0.2-0.6s0.3-0.3,0.5-0.4c0.2-0.1,0.3-0.2,0.5-0.2
	c0.1-0.1,0.2-0.1,0.3-0.1c-0.1,0-0.2-0.1-0.3-0.2c-0.1-0.1-0.3-0.2-0.4-0.3c-0.1-0.1-0.2-0.3-0.2-0.6c0-0.3,0.1-0.5,0.4-0.7
	c0.2-0.2,0.6-0.4,1.1-0.5c-0.5-0.2-0.8-0.5-1.1-0.9c-0.2-0.4-0.4-0.8-0.4-1.2c0-0.5,0.1-0.9,0.4-1.2c0.3-0.3,0.7-0.6,1.2-0.8
	c0.5-0.2,1.1-0.3,1.8-0.3c0.5,0,0.9,0.1,1.2,0.2c0.3,0.1,0.6,0.2,0.9,0.4c0.1,0,0.2-0.1,0.4-0.2c0.2-0.1,0.4-0.1,0.6-0.2
	c0.2-0.1,0.4-0.2,0.6-0.2c0.2-0.1,0.4-0.2,0.5-0.2l0,1.6l-1.3,0.2c0.1,0.1,0.1,0.3,0.1,0.4s0,0.3,0,0.4c0,0.4-0.1,0.8-0.4,1.2
	c-0.2,0.4-0.6,0.7-1.1,0.9c-0.5,0.2-1.1,0.3-1.8,0.3c-0.1,0-0.2,0-0.4,0c-0.1,0-0.3,0-0.4,0c-0.3,0-0.5,0-0.6,0.1
	c-0.1,0.1-0.2,0.1-0.2,0.2c0,0.1,0.1,0.2,0.3,0.2c0.2,0,0.5,0.1,1,0.1c0.1,0,0.4,0,0.6,0c0.3,0,0.6,0,0.9,0.1c0.9,0.1,1.5,0.3,2,0.7
	c0.4,0.4,0.7,0.8,0.7,1.4c0,0.7-0.3,1.2-1,1.7C203.6,162.8,202.6,163,201.3,163z M201.7,161.9c0.6,0,1-0.1,1.2-0.2
	c0.2-0.1,0.4-0.3,0.4-0.6c0-0.2-0.1-0.4-0.3-0.5c-0.2-0.1-0.5-0.2-0.8-0.2l-1.7-0.1c-0.2,0-0.4,0-0.6,0.1c-0.2,0.1-0.3,0.2-0.4,0.3
	c-0.1,0.1-0.1,0.3-0.1,0.4c0,0.3,0.2,0.5,0.6,0.7C200.3,161.8,200.9,161.9,201.7,161.9z M201.3,156.8c0.4,0,0.7-0.1,0.9-0.3
	c0.2-0.2,0.4-0.5,0.4-0.9c0-0.4-0.1-0.7-0.4-0.9c-0.2-0.2-0.5-0.3-0.9-0.3c-0.4,0-0.7,0.1-0.9,0.3c-0.2,0.2-0.4,0.5-0.4,0.9
	c0,0.4,0.1,0.6,0.3,0.9C200.6,156.7,200.9,156.8,201.3,156.8z M208.3,157.5c0,0.4,0.1,0.7,0.2,1c0.1,0.3,0.3,0.5,0.5,0.6
	c0.2,0.1,0.5,0.2,0.8,0.2c0.3,0,0.7-0.1,0.9-0.2c0.3-0.1,0.5-0.4,0.6-0.7h1.8c-0.1,0.5-0.3,1-0.6,1.3c-0.3,0.4-0.7,0.6-1.2,0.8
	c-0.5,0.2-1,0.3-1.5,0.3c-0.7,0-1.3-0.1-1.9-0.4c-0.5-0.3-1-0.7-1.3-1.3c-0.3-0.6-0.5-1.2-0.5-1.9c0-0.7,0.1-1.4,0.4-2
	c0.3-0.6,0.7-1,1.2-1.4c0.5-0.3,1.2-0.5,1.9-0.5c0.7,0,1.4,0.2,1.9,0.5c0.5,0.3,0.9,0.7,1.1,1.3c0.3,0.6,0.4,1.2,0.4,1.9v0.6H208.3z
	 M208.3,156.2h3c0-0.3-0.1-0.6-0.2-0.8c-0.1-0.2-0.3-0.4-0.5-0.6c-0.2-0.1-0.5-0.2-0.8-0.2c-0.3,0-0.6,0.1-0.8,0.2
	c-0.2,0.1-0.4,0.3-0.5,0.6C208.3,155.7,208.3,156,208.3,156.2z M214.5,160.6v-7.2h2v1c0.2-0.3,0.5-0.6,0.9-0.8
	c0.4-0.2,0.8-0.3,1.4-0.3c0.2,0,0.5,0,0.8,0.1c0.3,0.1,0.5,0.2,0.7,0.4c0.2,0.2,0.4,0.4,0.6,0.6c0.2-0.3,0.5-0.6,0.9-0.8
	c0.4-0.2,0.8-0.3,1.3-0.3c0.3,0,0.5,0,0.8,0.1c0.3,0.1,0.5,0.2,0.8,0.4c0.2,0.2,0.4,0.5,0.6,0.8c0.1,0.3,0.2,0.7,0.2,1.2v4.8h-2
	v-4.5c0-0.3-0.1-0.5-0.2-0.7c-0.1-0.2-0.3-0.3-0.4-0.4c-0.2-0.1-0.4-0.1-0.6-0.1c-0.2,0-0.4,0-0.6,0.1c-0.2,0.1-0.3,0.2-0.5,0.3
	c-0.1,0.2-0.2,0.4-0.2,0.6v4.6h-2v-4.7c0-0.2-0.1-0.4-0.2-0.6c-0.1-0.1-0.3-0.3-0.4-0.3c-0.2-0.1-0.3-0.1-0.5-0.1
	c-0.2,0-0.4,0-0.6,0.1c-0.2,0.1-0.3,0.2-0.5,0.4c-0.1,0.2-0.2,0.4-0.2,0.6v4.6H214.5z M229.1,153.6v2.2h-2.2v-2.2H229.1z
	 M229.1,158.4v2.2h-2.2v-2.2H229.1z"/>
<path class="st3" d="M120.9,175.4c0-0.7,0.2-1.2,0.5-1.7c0.3-0.5,0.7-0.8,1.3-1.1c0.5-0.2,1.1-0.4,1.8-0.4c0.7,0,1.3,0.1,1.9,0.3
	c0.5,0.2,1,0.5,1.3,0.9c0.3,0.4,0.5,0.9,0.5,1.4c0,0.5-0.2,1-0.5,1.4c-0.3,0.4-0.8,0.7-1.5,0.9c0.4,0.1,0.8,0.3,1.2,0.5
	s0.6,0.5,0.8,0.9c0.2,0.3,0.3,0.7,0.3,1.2c0,0.5-0.1,0.9-0.3,1.2c-0.2,0.4-0.5,0.7-0.8,0.9c-0.4,0.3-0.8,0.4-1.2,0.6
	c-0.5,0.1-1,0.2-1.6,0.2c-0.7,0-1.3-0.1-1.8-0.4c-0.5-0.3-0.9-0.6-1.2-1.1c-0.3-0.5-0.5-1-0.5-1.6h1.3c0.1,0.6,0.4,1.1,0.8,1.4
	s0.9,0.5,1.6,0.5c0.5,0,0.9-0.1,1.3-0.2c0.4-0.2,0.7-0.4,0.9-0.7c0.2-0.3,0.3-0.6,0.3-1c0-0.4-0.1-0.7-0.3-1s-0.5-0.5-0.9-0.6
	c-0.4-0.1-0.8-0.2-1.3-0.2l-0.9,0v-1.1l0.9,0c0.4,0,0.8-0.1,1.2-0.3c0.3-0.2,0.6-0.4,0.8-0.6c0.2-0.3,0.3-0.6,0.3-0.9
	c0-0.3-0.1-0.5-0.3-0.8c-0.2-0.2-0.4-0.4-0.7-0.6c-0.3-0.1-0.7-0.2-1.2-0.2c-0.4,0-0.7,0.1-1,0.2c-0.3,0.1-0.6,0.4-0.8,0.7
	c-0.2,0.3-0.3,0.7-0.3,1.1H120.9z M133.2,172.4c1.1,0,2,0.4,2.6,1.3c0.7,0.9,1,2.2,1,3.9c0,1.7-0.3,3-1,3.9
	c-0.6,0.9-1.5,1.3-2.6,1.3c-1.1,0-2-0.4-2.6-1.3c-0.6-0.9-1-2.2-1-3.9c0-1.2,0.1-2.1,0.4-2.9c0.3-0.8,0.7-1.4,1.3-1.8
	C131.8,172.5,132.4,172.4,133.2,172.4z M133.2,181.6c0.7,0,1.3-0.3,1.6-1c0.4-0.6,0.6-1.7,0.6-3.1c0-1.5-0.2-2.5-0.6-3.2
	c-0.4-0.6-0.9-1-1.6-1c-0.7,0-1.3,0.3-1.7,1c-0.4,0.6-0.6,1.7-0.6,3.2c0,1.4,0.2,2.5,0.6,3.1C131.9,181.3,132.4,181.6,133.2,181.6z
	 M139.1,172.5h6l0,1.1h-4.9l-0.3,3.3c0.3-0.3,0.7-0.5,1.1-0.7c0.4-0.1,0.8-0.2,1.3-0.2c0.6,0,1.2,0.1,1.7,0.4
	c0.5,0.2,0.9,0.6,1.2,1.1c0.3,0.5,0.5,1.1,0.5,1.8c0,0.7-0.2,1.3-0.5,1.8c-0.3,0.5-0.7,0.9-1.3,1.2c-0.6,0.3-1.2,0.4-1.9,0.4
	c-0.6,0-1.2-0.1-1.7-0.3c-0.5-0.2-1-0.5-1.4-0.9c-0.4-0.4-0.7-0.8-0.8-1.4l1.1-0.5c0.2,0.4,0.4,0.7,0.6,1c0.3,0.3,0.6,0.5,0.9,0.7
	c0.3,0.2,0.7,0.3,1.2,0.3c0.7,0,1.3-0.2,1.7-0.6c0.4-0.4,0.7-1,0.7-1.7c0-0.4-0.1-0.8-0.3-1.2c-0.2-0.3-0.5-0.6-0.8-0.8
	c-0.3-0.2-0.7-0.3-1.1-0.3c-0.3,0-0.5,0-0.8,0.1c-0.2,0-0.5,0.1-0.7,0.3c-0.2,0.1-0.5,0.4-0.7,0.6c0,0,0,0-0.1,0c0,0,0,0-0.1,0
	l-1.1-0.3L139.1,172.5z M157.1,182.6h-1.4l-2.1-2.8l-2.1,2.8h-1.4l2.8-3.8l-2.6-3.5h1.4l1.9,2.5l1.9-2.5h1.4l-2.6,3.5L157.1,182.6z
	 M161.6,182.6v-0.8v-0.4c0-0.5,0.1-1,0.3-1.3c0.2-0.4,0.5-0.7,0.8-1c0.3-0.3,0.7-0.5,1.1-0.8c0.4-0.2,0.8-0.4,1.1-0.6
	c0.4-0.2,0.7-0.4,1.1-0.7c0.3-0.2,0.6-0.5,0.8-0.8c0.2-0.3,0.3-0.6,0.3-1c0-0.5-0.2-0.9-0.5-1.3c-0.4-0.3-0.8-0.5-1.5-0.5
	c-0.7,0-1.2,0.2-1.6,0.6c-0.4,0.4-0.6,0.9-0.7,1.5h-1.3c0-0.6,0.2-1.1,0.4-1.6c0.3-0.5,0.7-0.9,1.2-1.2s1.2-0.4,2-0.4
	c0.7,0,1.3,0.1,1.8,0.4c0.5,0.2,0.9,0.6,1.2,1c0.3,0.4,0.4,0.9,0.4,1.5c0,0.5-0.1,1-0.3,1.3c-0.2,0.4-0.4,0.7-0.8,1
	c-0.3,0.3-0.7,0.5-1,0.7c-0.4,0.2-0.7,0.4-1.1,0.6c-0.4,0.2-0.7,0.4-1,0.6c-0.3,0.2-0.6,0.5-0.8,0.7c-0.2,0.3-0.3,0.6-0.3,1v0.2h5.3
	v1.1H161.6z M169.9,175.4c0-0.7,0.2-1.2,0.5-1.7c0.3-0.5,0.7-0.8,1.3-1.1c0.5-0.2,1.1-0.4,1.8-0.4c0.7,0,1.3,0.1,1.9,0.3
	c0.5,0.2,1,0.5,1.3,0.9c0.3,0.4,0.5,0.9,0.5,1.4c0,0.5-0.2,1-0.5,1.4c-0.3,0.4-0.8,0.7-1.5,0.9c0.4,0.1,0.8,0.3,1.2,0.5
	c0.3,0.2,0.6,0.5,0.8,0.9c0.2,0.3,0.3,0.7,0.3,1.2c0,0.5-0.1,0.9-0.3,1.2c-0.2,0.4-0.5,0.7-0.8,0.9c-0.4,0.3-0.8,0.4-1.2,0.6
	c-0.5,0.1-1,0.2-1.6,0.2c-0.7,0-1.3-0.1-1.8-0.4c-0.5-0.3-0.9-0.6-1.2-1.1c-0.3-0.5-0.5-1-0.5-1.6h1.3c0.1,0.6,0.4,1.1,0.8,1.4
	c0.4,0.3,0.9,0.5,1.6,0.5c0.5,0,0.9-0.1,1.3-0.2c0.4-0.2,0.7-0.4,0.9-0.7c0.2-0.3,0.3-0.6,0.3-1c0-0.4-0.1-0.7-0.3-1
	s-0.5-0.5-0.9-0.6c-0.4-0.1-0.8-0.2-1.3-0.2l-0.9,0v-1.1l0.9,0c0.4,0,0.8-0.1,1.2-0.3c0.3-0.2,0.6-0.4,0.8-0.6
	c0.2-0.3,0.3-0.6,0.3-0.9c0-0.3-0.1-0.5-0.3-0.8c-0.2-0.2-0.4-0.4-0.7-0.6c-0.3-0.1-0.7-0.2-1.2-0.2c-0.4,0-0.7,0.1-1,0.2
	c-0.3,0.1-0.6,0.4-0.8,0.7c-0.2,0.3-0.3,0.7-0.3,1.1H169.9z M182.4,172.4c0.6,0,1.2,0.1,1.7,0.3c0.5,0.2,0.9,0.5,1.2,0.9
	c0.3,0.4,0.4,0.9,0.4,1.5c0,0.6-0.1,1-0.4,1.4c-0.3,0.4-0.7,0.7-1.1,0.9c0.3,0.1,0.7,0.2,1,0.5c0.3,0.3,0.6,0.6,0.8,0.9
	c0.2,0.4,0.3,0.7,0.3,1.1c0,0.6-0.2,1.1-0.5,1.5c-0.3,0.4-0.8,0.8-1.3,1c-0.6,0.2-1.3,0.4-2,0.4c-0.8,0-1.5-0.1-2-0.4
	c-0.6-0.2-1-0.6-1.4-1c-0.3-0.4-0.5-0.9-0.5-1.5c0-0.4,0.1-0.8,0.3-1.1c0.2-0.4,0.5-0.7,0.8-0.9c0.3-0.3,0.6-0.4,1-0.5
	c-0.5-0.2-0.8-0.5-1.1-0.9c-0.3-0.4-0.4-0.8-0.4-1.4c0-0.6,0.2-1.1,0.4-1.5c0.3-0.4,0.7-0.7,1.2-0.9
	C181.1,172.5,181.7,172.4,182.4,172.4z M182.4,176.8c0.6,0,1.1-0.2,1.5-0.5c0.4-0.3,0.6-0.7,0.6-1.3c0-0.5-0.2-1-0.6-1.3
	c-0.4-0.3-0.9-0.5-1.5-0.5c-0.6,0-1.1,0.2-1.5,0.5c-0.4,0.3-0.6,0.7-0.6,1.3s0.2,1,0.6,1.3C181.2,176.7,181.7,176.8,182.4,176.8z
	 M182.4,181.7c0.8,0,1.4-0.2,1.8-0.5c0.4-0.3,0.7-0.8,0.7-1.4c0-0.4-0.1-0.7-0.3-1c-0.2-0.3-0.5-0.5-0.9-0.7
	c-0.4-0.2-0.8-0.3-1.3-0.3c-0.5,0-0.9,0.1-1.3,0.3c-0.4,0.2-0.6,0.4-0.9,0.7c-0.2,0.3-0.3,0.6-0.3,1c0,0.6,0.2,1,0.7,1.4
	C181,181.6,181.6,181.7,182.4,181.7z"/>
<g>
	<path class="st4" d="M115.5,50.6h76c6.6,0,12,5.4,12,12v50c0,6.6-5.4,12-12,12h-76c-6.6,0-12-5.4-12-12v-50
		C103.5,56,108.9,50.6,115.5,50.6z"/>
</g>
<g>
	<path class="st5" d="M125.9,82.3c5.1,0,9.2-4.1,9.2-9.2c0-5.1-4.1-9.2-9.2-9.2c-5.1,0-9.2,4.1-9.2,9.2
		C116.7,78.2,120.8,82.3,125.9,82.3z"/>
</g>
<path class="st6" d="M127.8,124.6h67.8c4.4,0,7.9-3.6,7.9-7.9v-16.3l-21-21.1c-3-3-7.9-3-10.9,0l-45.1,45.2
	C126.9,124.6,127.4,124.6,127.8,124.6z"/>
<g>
	<path class="st5" d="M109.8,124.4c-3.6-0.7-6.3-3.9-6.3-7.8v-2.1l20.7-20.7c3.1-3.1,8.1-3.1,11.1,0l30.7,30.7h-53.1
		c-0.4,0-2.5-0.1-2.9-0.1C109.9,124.5,109.9,124.5,109.8,124.4z"/>
</g>
</svg>
