<svg width="106" height="34" viewBox="0 0 106 34" fill="none" xmlns="http://www.w3.org/2000/svg">
<g clip-path="url(#clip0_143_209)">
<path d="M17.1813 0C7.67814 0 0 7.61585 0 17C0 26.3841 7.69706 34 17.1813 34C26.6655 34 34.3625 26.3841 34.3625 17C34.3625 7.61585 26.6655 0 17.1813 0ZM25.0674 24.541C24.7554 25.0462 24.1029 25.1866 23.5923 24.8872C19.5452 22.4546 14.4769 21.9026 8.48189 23.2405C7.90509 23.3621 7.32828 23.016 7.20535 22.4452C7.08243 21.8745 7.43229 21.3038 8.0091 21.1822C14.562 19.7039 20.1788 20.3308 24.6987 23.0721C25.2093 23.3808 25.3795 24.0264 25.0674 24.5316V24.541ZM27.1572 19.9097C26.7695 20.5366 25.9468 20.7237 25.3133 20.3588C20.6894 17.552 13.6542 16.7474 8.18876 18.366C7.47012 18.5718 6.73256 18.1882 6.52453 17.4959C6.3165 16.7848 6.70419 16.055 7.42284 15.8492C13.6637 13.978 21.4269 14.8762 26.7411 18.0947C27.3558 18.4595 27.5449 19.2735 27.1477 19.9004L27.1572 19.9097ZM27.3463 15.0726C21.8052 11.8261 12.6708 11.5173 7.37556 13.0985C6.52453 13.3605 5.62623 12.874 5.36146 12.0413C5.0967 11.2086 5.5884 10.3198 6.42997 10.0484C12.5101 8.224 22.6089 8.58888 28.9727 12.322C29.7292 12.7711 29.975 13.7441 29.5306 14.4926C29.124 15.2691 28.1122 15.5124 27.3558 15.0633L27.3463 15.0726Z" fill="#1ED760"/>
<path d="M43.3078 16.4948C40.3765 15.8118 39.8753 15.316 39.8753 14.2962C39.8753 13.3325 40.7831 12.6963 42.1353 12.6963C43.4874 12.6963 44.764 13.1921 46.1351 14.1932C46.1729 14.2307 46.2391 14.2307 46.2769 14.2307C46.3336 14.2307 46.3809 14.1932 46.3998 14.1465L47.8371 12.1443C47.8939 12.0601 47.8749 11.9478 47.7993 11.8823C46.1634 10.5818 44.3196 9.96429 42.1825 9.96429C39.0337 9.96429 36.8305 11.8449 36.8305 14.5207C36.8305 17.4024 38.7311 18.4222 42.0218 19.1987C44.8113 19.835 45.2935 20.3776 45.2935 21.3226C45.2935 22.3798 44.3479 23.0441 42.8066 23.0441C41.1046 23.0441 39.7146 22.4827 38.1543 21.1448C38.1165 21.1074 38.0503 21.1074 38.0125 21.1074C37.9558 21.1074 37.9085 21.1261 37.8896 21.1635L36.2915 23.0441C36.2348 23.1283 36.2348 23.2406 36.3105 23.3061C38.126 24.906 40.3576 25.748 42.7593 25.748C46.154 25.748 48.3572 23.9049 48.3572 21.07C48.3194 18.6654 46.8632 17.3462 43.3078 16.4948ZM56.0164 13.6319C54.5413 13.6319 53.331 14.212 52.3381 15.3908V14.0716C52.3381 13.9687 52.253 13.8938 52.1584 13.8938H49.5486C49.4446 13.8938 49.369 13.9781 49.369 14.0716V28.7887C49.369 28.8916 49.4541 28.9665 49.5486 28.9665H52.1584C52.2625 28.9665 52.3381 28.8823 52.3381 28.7887V24.1481C53.331 25.2521 54.5413 25.7854 56.0164 25.7854C58.7492 25.7854 61.5386 23.7084 61.5386 19.704C61.5197 15.7276 58.7492 13.6225 56.0164 13.6225V13.6319ZM58.4844 19.7133C58.4844 21.753 57.2079 23.1564 55.4113 23.1564C53.6146 23.1564 52.2814 21.6781 52.2814 19.7133C52.2814 17.7486 53.6336 16.2703 55.4113 16.2703C57.1889 16.2703 58.4844 17.7111 58.4844 19.7133ZM68.6305 13.6319C65.113 13.6319 62.3424 16.3077 62.3424 19.7508C62.3424 23.1938 65.094 25.8135 68.5832 25.8135C72.0724 25.8135 74.8903 23.1377 74.8903 19.7133C74.8903 16.289 72.1386 13.6319 68.6211 13.6319H68.6305ZM68.6305 23.1751C66.7488 23.1751 65.3399 21.6781 65.3399 19.7133C65.3399 17.7486 66.711 16.289 68.5927 16.289C70.4744 16.289 71.9117 17.786 71.9117 19.7695C71.8928 21.7249 70.5217 23.1657 68.64 23.1657L68.6305 23.1751ZM82.4171 13.8751H79.5426V10.956C79.5426 10.8531 79.4575 10.7783 79.3629 10.7783H76.7531C76.6491 10.7783 76.5734 10.8625 76.5734 10.956V13.8751H75.3158C75.2118 13.8751 75.1361 13.9593 75.1361 14.0529V16.2703C75.1361 16.3732 75.2212 16.4481 75.3158 16.4481H76.5734V22.2114C76.5734 24.5317 77.746 25.7106 80.0532 25.7106C80.9799 25.7106 81.7741 25.5141 82.5022 25.1118C82.559 25.0744 82.6063 25.0089 82.6063 24.9527V22.8289C82.6063 22.7728 82.5684 22.7073 82.5212 22.6698C82.4644 22.6324 82.3982 22.6324 82.3415 22.6698C81.8403 22.9318 81.3486 23.0254 80.8096 23.0254C79.9586 23.0254 79.5993 22.6418 79.5993 21.8091V16.4668H82.4739C82.5779 16.4668 82.6535 16.3826 82.6535 16.289V14.0716C82.6346 13.95 82.5495 13.8751 82.4266 13.8751H82.4171ZM92.4592 13.8938V13.5383C92.4592 12.4811 92.8658 12.0226 93.7736 12.0226C94.322 12.0226 94.7665 12.1255 95.2487 12.2846C95.3055 12.3033 95.3716 12.2846 95.4284 12.2659C95.4662 12.2285 95.5135 12.163 95.5135 12.1068V9.92687C95.5135 9.84266 95.4567 9.76781 95.3716 9.7491C94.8421 9.59005 94.1991 9.44971 93.1874 9.44971C90.7572 9.44971 89.4901 10.7876 89.4901 13.3512V13.8938H88.2325C88.1285 13.8938 88.0339 13.9781 88.0339 14.0716V16.3077C88.0339 16.4106 88.119 16.4855 88.2325 16.4855H89.4901V25.3644C89.4901 25.4673 89.5752 25.5422 89.6698 25.5422H92.2796C92.3836 25.5422 92.4592 25.458 92.4592 25.3644V16.4855H94.9083L98.6434 25.3644C98.2179 26.3 97.7923 26.4871 97.225 26.4871C96.7617 26.4871 96.2794 26.3468 95.7877 26.0848C95.7499 26.0661 95.6837 26.0661 95.627 26.0661C95.5891 26.0848 95.5229 26.1222 95.504 26.169L94.6152 28.087C94.5774 28.1899 94.6152 28.2835 94.7003 28.3303C95.627 28.8262 96.4591 29.032 97.4897 29.032C99.4282 29.032 100.478 28.1338 101.433 25.748L105.981 14.1465C106 14.0903 106 14.0248 105.962 13.9687C105.924 13.9126 105.858 13.8845 105.801 13.8845H103.069C102.984 13.8845 102.908 13.9406 102.889 14.0061L100.1 21.8839L97.0453 13.9874C97.0264 13.9032 96.9413 13.8658 96.8657 13.8658H92.4592V13.9032V13.8938ZM86.6439 13.8751H84.0341C83.9301 13.8751 83.8544 13.9593 83.8544 14.0529V25.355C83.8544 25.458 83.9395 25.5328 84.0341 25.5328H86.6439C86.7479 25.5328 86.8236 25.4486 86.8236 25.355V14.0716C86.8425 13.95 86.7385 13.8751 86.6439 13.8751Z" fill="#1ED760"/>
<path d="M85.3485 12.453C86.3877 12.453 87.2302 11.6194 87.2302 10.5911C87.2302 9.56283 86.3877 8.72925 85.3485 8.72925C84.3092 8.72925 83.4667 9.56283 83.4667 10.5911C83.4667 11.6194 84.3092 12.453 85.3485 12.453Z" fill="#1ED760"/>
</g>
<defs>
<clipPath id="clip0_143_209">
<rect width="106" height="34" fill="white"/>
</clipPath>
</defs>
</svg>
