<svg width="25" height="25" viewBox="0 0 25 25" fill="none" xmlns="http://www.w3.org/2000/svg">
<path d="M12.1094 0C5.42139 0 0 5.56861 0 12.4382C0 19.3078 5.42139 24.8764 12.1094 24.8764C18.7974 24.8764 24.2188 19.3078 24.2188 12.4382C24.2188 5.56861 18.7974 0 12.1094 0ZM12.1094 21.6666C7.14404 21.6666 3.125 17.5394 3.125 12.4382C3.125 7.33804 7.14307 3.20986 12.1094 3.20986C17.0747 3.20986 21.0938 7.33704 21.0938 12.4382C21.0938 17.5384 17.0757 21.6666 12.1094 21.6666ZM12.1094 6.01849C8.65771 6.01849 5.85938 8.89282 5.85938 12.4382C5.85938 15.9836 8.65771 18.8579 12.1094 18.8579C15.561 18.8579 18.3594 15.9836 18.3594 12.4382C18.3594 8.89282 15.561 6.01849 12.1094 6.01849ZM12.1094 15.6481C10.3862 15.6481 8.98438 14.2081 8.98438 12.4382C8.98438 10.6683 10.3862 9.22835 12.1094 9.22835C13.8325 9.22835 15.2344 10.6683 15.2344 12.4382C15.2344 14.2081 13.8325 15.6481 12.1094 15.6481Z" fill="#FFFF47"/>
</svg>
