<svg width="159" height="45" viewBox="0 0 159 45" fill="none" xmlns="http://www.w3.org/2000/svg">
<path d="M60.5076 31.9907C60.8645 32.2101 61.1391 32.4843 61.3588 32.8683C61.551 33.2523 61.6609 33.6637 61.6609 34.1299C61.6609 34.5962 61.551 35.0076 61.3588 35.3916C61.1666 35.7756 60.8645 36.0498 60.5076 36.2692C60.1506 36.4887 59.7387 36.5709 59.2993 36.5709C58.86 36.5709 58.4481 36.4612 58.0911 36.2692C57.7341 36.0498 57.4595 35.7756 57.2399 35.3916C57.0202 35.0076 56.9378 34.5962 56.9378 34.1299C56.9378 33.6637 57.0476 33.2523 57.2399 32.8683C57.4595 32.4843 57.7341 32.2101 58.0911 31.9907C58.4481 31.7712 58.86 31.689 59.2993 31.689C59.7662 31.6615 60.1506 31.7712 60.5076 31.9907ZM58.503 32.594C58.2559 32.7312 58.0911 32.9232 57.9538 33.1974C57.8165 33.4717 57.7616 33.7734 57.7616 34.1025C57.7616 34.4591 57.8165 34.7608 57.9538 35.0076C58.0911 35.2819 58.2833 35.4739 58.503 35.611C58.7501 35.7481 59.0247 35.8304 59.3268 35.8304C59.6289 35.8304 59.9035 35.7481 60.1231 35.611C60.3703 35.4739 60.535 35.2819 60.6723 35.0076C60.8096 34.7333 60.8645 34.4316 60.8645 34.1025C60.8645 33.746 60.8096 33.4443 60.6723 33.1974C60.535 32.9232 60.3428 32.7312 60.1231 32.594C59.876 32.4569 59.6289 32.3746 59.3268 32.3746C58.9973 32.3746 58.7501 32.4569 58.503 32.594Z" fill="#00042D"/>
<path d="M68.9652 34.651V36.4886H68.1963V31.7163H69.8164C70.3656 31.7163 70.7775 31.8534 71.0521 32.1003C71.3267 32.3746 71.464 32.7311 71.464 33.1699C71.464 33.6088 71.3267 33.9653 71.0521 34.2396C70.7775 34.4864 70.3656 34.6236 69.8164 34.6236L68.9652 34.651ZM70.6677 33.1974C70.6677 32.9231 70.5853 32.7311 70.448 32.5665C70.2832 32.4294 70.0635 32.3471 69.734 32.3471H68.9652V33.9927H69.734C70.3656 34.0202 70.6677 33.7459 70.6677 33.1974Z" fill="#00042D"/>
<path d="M78.631 32.347V33.8007H80.3884V34.4041H78.631V35.8851H80.5806V36.5159H77.8621V31.7437H80.5806V32.3745L78.631 32.347Z" fill="#00042D"/>
<path d="M89.5874 36.4886L88.4066 34.5961H87.8574V36.4886H87.0886V31.7163H88.7636C89.3128 31.7163 89.7247 31.8534 89.9993 32.1277C90.2739 32.402 90.4112 32.7311 90.4112 33.1699C90.4112 33.5539 90.3014 33.8556 90.1091 34.075C89.8895 34.3219 89.5874 34.459 89.203 34.5413L90.4661 36.4886H89.5874ZM87.8574 34.0476H88.7087C89.3403 34.0476 89.6423 33.7733 89.6423 33.2248C89.6423 32.9505 89.5599 32.7585 89.4226 32.6214C89.2579 32.4843 89.0382 32.402 88.7087 32.402H87.8574V34.0476Z" fill="#00042D"/>
<path d="M99.7201 35.4737H97.7155L97.3585 36.5159H96.5347L98.2922 31.8259H99.1709L100.928 36.5159H100.104L99.7201 35.4737ZM99.5004 34.8703L98.7041 32.6487L97.9077 34.8703H99.5004Z" fill="#00042D"/>
<path d="M111.006 35.3641C110.814 35.7206 110.512 35.9949 110.155 36.1869C109.77 36.3789 109.331 36.4886 108.809 36.4886H107.217V31.7163H108.809C109.331 31.7163 109.77 31.826 110.155 32.018C110.539 32.21 110.814 32.4843 111.006 32.8408C111.198 33.1974 111.308 33.6088 111.308 34.1024C111.308 34.5961 111.198 35.0075 111.006 35.3641ZM110.072 35.3641C110.374 35.0624 110.539 34.651 110.539 34.1299C110.539 33.5813 110.374 33.1699 110.072 32.8957C109.77 32.594 109.331 32.4568 108.754 32.4568H107.985V35.8303H108.754C109.331 35.8029 109.77 35.6384 110.072 35.3641Z" fill="#00042D"/>
<path d="M121.221 31.9907C121.578 32.2101 121.853 32.4843 122.072 32.8683C122.264 33.2523 122.374 33.6637 122.374 34.1299C122.374 34.5962 122.264 35.0076 122.072 35.3916C121.88 35.7756 121.578 36.0498 121.221 36.2692C120.864 36.4887 120.452 36.5709 120.013 36.5709C119.573 36.5709 119.162 36.4612 118.805 36.2692C118.448 36.0498 118.173 35.7756 117.953 35.3916C117.734 35.0076 117.651 34.5962 117.651 34.1299C117.651 33.6637 117.761 33.2523 117.953 32.8683C118.173 32.4843 118.448 32.2101 118.805 31.9907C119.162 31.7712 119.573 31.689 120.013 31.689C120.48 31.6615 120.864 31.7712 121.221 31.9907ZM119.216 32.594C118.969 32.7312 118.805 32.9232 118.667 33.1974C118.53 33.4717 118.475 33.7734 118.475 34.1025C118.475 34.4591 118.53 34.7608 118.667 35.0076C118.805 35.2819 118.997 35.4739 119.216 35.611C119.464 35.7481 119.738 35.8304 120.04 35.8304C120.342 35.8304 120.617 35.7481 120.837 35.611C121.084 35.4739 121.248 35.2819 121.386 35.0076C121.523 34.7333 121.578 34.4316 121.578 34.1025C121.578 33.746 121.523 33.4443 121.386 33.1974C121.248 32.9232 121.056 32.7312 120.837 32.594C120.589 32.4569 120.342 32.3746 120.04 32.3746C119.738 32.3746 119.464 32.4569 119.216 32.594Z" fill="#00042D"/>
<path d="M131.409 36.4886L130.228 34.5961H129.679V36.4886H128.91V31.7163H130.585C131.134 31.7163 131.546 31.8534 131.82 32.1277C132.095 32.402 132.232 32.7311 132.232 33.1699C132.232 33.5539 132.123 33.8556 131.93 34.075C131.711 34.3219 131.409 34.459 131.024 34.5413L132.287 36.4886H131.409ZM129.679 34.0476H130.53C131.161 34.0476 131.463 33.7733 131.463 33.2248C131.463 32.9505 131.381 32.7585 131.244 32.6214C131.107 32.4843 130.859 32.402 130.53 32.402H129.679V34.0476Z" fill="#00042D"/>
<path d="M141.514 35.4737H139.509L139.152 36.5159H138.328L140.086 31.8259H140.965L142.722 36.5159H141.898L141.514 35.4737ZM141.294 34.8703L140.498 32.6487L139.701 34.8703H141.294Z" fill="#00042D"/>
<path d="M53.1758 34.8155H44.0043C43.8395 34.8155 43.7022 34.6235 43.7022 34.4041C43.7022 34.1847 43.8395 33.9927 44.0043 33.9927H53.1758C53.3406 33.9927 53.4779 34.1847 53.4779 34.4041C53.4504 34.6235 53.3406 34.8155 53.1758 34.8155Z" fill="#00042D"/>
<path d="M156.012 34.459H146.759C146.621 34.459 146.511 34.267 146.511 34.0476C146.511 33.8282 146.621 33.6362 146.759 33.6362H156.012C156.15 33.6362 156.26 33.8282 156.26 34.0476C156.26 34.267 156.15 34.459 156.012 34.459Z" fill="#00042D"/>
<path d="M64.9012 10.4879C64.7913 11.0639 64.4069 11.4479 63.9126 11.6673L58.9973 13.6146L59.2994 11.8593C59.4092 11.3656 59.7936 10.8993 60.2879 10.6799L65.3954 8.43091L64.9012 10.4879Z" fill="#00042D"/>
<path d="M129.981 10.4879C129.871 11.0639 129.486 11.4479 128.992 11.6673L124.077 13.6146L124.379 11.8593C124.489 11.3656 124.873 10.8993 125.367 10.6799L130.475 8.43091L129.981 10.4879Z" fill="#00042D"/>
<path d="M54.3017 11.1736L53.9996 12.874C53.9172 13.2855 53.5602 13.5871 53.1209 13.5871H47.4093L46.6953 17.7012H51.8577L51.5832 19.3194C51.5008 19.7308 51.1438 20.0599 50.7044 20.0599H46.256L45.2674 25.7372C45.185 26.1761 44.8006 26.5326 44.3338 26.5326H42.0546L44.5809 12.1061C44.6633 11.585 45.1301 11.201 45.6519 11.201H54.3017V11.1736Z" fill="#00042D"/>
<path d="M64.0498 15.5618C64.9286 16.3846 65.3954 17.4816 65.3954 18.853C65.3954 19.1821 65.3679 19.5661 65.2855 20.0323C65.2032 20.4712 65.0933 20.8277 65.0109 21.0746H56.1689C56.1414 21.2391 56.114 21.4585 56.114 21.7602C56.114 22.6105 56.3337 23.2139 56.773 23.5978C57.2124 23.9818 57.789 24.1738 58.503 24.1738C59.2169 24.1738 59.8485 24.0092 60.3702 23.6527C60.9194 23.2961 61.3039 22.8299 61.5235 22.2539H64.7638C64.297 23.5704 63.4732 24.6126 62.2924 25.4354C61.1117 26.2582 59.7661 26.6422 58.2284 26.6422C56.6906 26.6422 55.4824 26.2034 54.5762 25.3532C53.6701 24.5029 53.2307 23.3236 53.2307 21.7877C53.2307 21.3214 53.2856 20.8277 53.368 20.3066C53.5877 19.0724 54.027 18.0028 54.7135 17.0977C55.4 16.1926 56.2238 15.5069 57.2124 15.0132C58.2009 14.5195 59.2718 14.2727 60.4526 14.2727C61.9354 14.3276 63.1711 14.739 64.0498 15.5618ZM62.3199 18.9078C62.3199 18.1947 62.1002 17.6462 61.6334 17.2897C61.194 16.9331 60.6174 16.7411 59.9309 16.7411C59.0796 16.7411 58.3382 16.988 57.6792 17.5091C57.0202 18.0028 56.5808 18.7707 56.3611 19.7581H62.21C62.2924 19.4564 62.3199 19.1821 62.3199 18.9078Z" fill="#00042D"/>
<path d="M73.2214 14.9859C74.0452 14.5471 74.9239 14.3276 75.8301 14.3276L75.2535 17.6189H74.3747C72.1231 17.6189 70.8324 18.6611 70.448 20.7455L69.5968 25.6275C69.5144 26.1486 69.0476 26.5326 68.5258 26.5326H66.3565L68.3336 15.3973C68.416 14.8762 68.8828 14.4922 69.4045 14.4922H71.5464L71.1345 16.7961C71.7111 16.0281 72.3976 15.4247 73.2214 14.9859Z" fill="#00042D"/>
<path d="M80.5806 14.4923L78.6035 25.6276C78.5212 26.1488 78.0543 26.5327 77.5326 26.5327H75.3907L77.3678 15.3974C77.4502 14.8763 77.917 14.4923 78.4388 14.4923H80.5806ZM78.3839 9.93949C78.7958 9.55551 79.3449 9.36353 79.9765 9.36353C80.4708 9.36353 80.8552 9.50066 81.1298 9.7475C81.4044 9.99434 81.5417 10.3235 81.5417 10.7349C81.5417 11.3108 81.322 11.7771 80.9101 12.1336C80.4983 12.4902 79.9765 12.6822 79.3449 12.6822C78.8507 12.6822 78.4388 12.5725 78.1642 12.3256C77.8896 12.0788 77.7523 11.7497 77.7523 11.3383C77.7523 10.7623 77.9445 10.296 78.3839 9.93949Z" fill="#00042D"/>
<path d="M90.5759 15.0682C91.235 15.5619 91.6469 16.1927 91.8116 16.9881L92.1137 15.3973C92.1961 14.8762 92.6629 14.4922 93.1846 14.4922H95.299L93.3219 25.6275C93.2395 26.1486 92.7727 26.5326 92.251 26.5326H90.1366L90.6034 24.0093C90.1641 24.8321 89.5325 25.463 88.7087 25.9566C87.8849 26.4503 86.9787 26.6972 85.9627 26.6972C84.5897 26.6972 83.5188 26.2858 82.7499 25.4355C81.9536 24.5853 81.5692 23.4334 81.5692 21.9523C81.5692 21.3764 81.6241 20.8278 81.7339 20.2793C81.9536 19.0725 82.3655 18.0303 82.9696 17.1252C83.5737 16.2201 84.3151 15.5344 85.1938 15.0682C86.0725 14.6019 87.0062 14.3551 88.0222 14.3551C89.0657 14.3277 89.9169 14.5745 90.5759 15.0682ZM86.1549 17.948C85.4684 18.5788 85.0291 19.4291 84.8369 20.4987C84.7819 20.9101 84.7545 21.1844 84.7545 21.3489C84.7545 22.1717 85.0016 22.83 85.4684 23.2688C85.9353 23.7351 86.5943 23.9545 87.4181 23.9545C88.3517 23.9545 89.1755 23.6528 89.862 23.022C90.5759 22.3912 91.0153 21.5409 91.2075 20.4987C91.2624 20.1147 91.2899 19.8405 91.2899 19.6759C91.2899 18.8531 91.0428 18.1948 90.5485 17.7286C90.0542 17.2623 89.4226 17.0155 88.6263 17.0155C87.6652 17.0155 86.8414 17.3172 86.1549 17.948Z" fill="#00042D"/>
<path d="M105.377 15.4248C106.228 16.1654 106.695 17.1527 106.75 18.3869H103.757C103.729 17.7835 103.537 17.3173 103.125 16.9882C102.713 16.659 102.137 16.4671 101.395 16.4671C100.846 16.4671 100.407 16.5768 100.05 16.8236C99.7201 17.0704 99.5278 17.3996 99.5278 17.811C99.5278 18.2224 99.7475 18.5515 100.159 18.7709C100.571 18.9903 101.203 19.2097 102.082 19.4566C102.933 19.7034 103.619 19.9503 104.141 20.1697C104.663 20.3891 105.13 20.7182 105.514 21.157C105.898 21.5959 106.091 22.1718 106.091 22.8849C106.091 23.1592 106.063 23.4335 106.008 23.7077C105.844 24.5854 105.322 25.2985 104.498 25.847C103.674 26.3956 102.576 26.6698 101.203 26.6698C99.6102 26.6698 98.3471 26.3133 97.4134 25.6002C96.4523 24.8871 95.9855 23.8997 95.9581 22.6107H98.9512C98.8963 23.1866 99.1159 23.6529 99.5827 24.0094C100.05 24.366 100.681 24.5305 101.477 24.5305C102.054 24.5305 102.493 24.3934 102.796 24.1466C103.098 23.8723 103.262 23.5432 103.262 23.1592C103.262 22.8301 103.153 22.5832 102.933 22.3638C102.713 22.1444 102.439 21.9798 102.109 21.8701C101.78 21.7604 101.285 21.5959 100.681 21.4313C99.8573 21.2119 99.1983 20.9925 98.6766 20.7731C98.1823 20.5537 97.7429 20.252 97.3585 19.8406C97.0015 19.4292 96.8093 18.8806 96.8093 18.1949C96.8093 17.9481 96.8368 17.7013 96.8642 17.3996C97.029 16.4945 97.5233 15.7814 98.3471 15.2054C99.1709 14.6569 100.297 14.3826 101.67 14.3826C103.29 14.3278 104.526 14.7117 105.377 15.4248Z" fill="#00042D"/>
<path d="M119.491 11.1736L119.189 12.874C119.107 13.2855 118.75 13.5871 118.31 13.5871H112.599L111.885 17.7012H117.047L116.773 19.3194C116.69 19.7308 116.333 20.0599 115.894 20.0599H111.445L110.484 25.6001C110.402 26.1212 109.935 26.5052 109.413 26.5052H107.271L109.798 12.0787C109.88 11.5576 110.347 11.1736 110.869 11.1736H119.491Z" fill="#00042D"/>
<path d="M127.647 15.0682C128.306 15.5619 128.717 16.1927 128.882 16.9881L129.184 15.3973C129.267 14.8762 129.734 14.4922 130.255 14.4922H132.37L130.393 25.6275C130.31 26.1486 129.843 26.5326 129.322 26.5326H127.207L127.674 24.0093C127.235 24.8321 126.603 25.463 125.779 25.9566C124.956 26.4503 124.049 26.6972 123.033 26.6972C121.66 26.6972 120.589 26.2858 119.821 25.4355C119.024 24.5853 118.64 23.4334 118.64 21.9523C118.64 21.3764 118.695 20.8278 118.805 20.2793C119.024 19.0725 119.436 18.0303 120.04 17.1252C120.644 16.2201 121.386 15.5344 122.264 15.0682C123.143 14.6019 124.077 14.3551 125.093 14.3551C126.136 14.3277 126.988 14.5745 127.647 15.0682ZM123.226 17.948C122.539 18.5788 122.1 19.4291 121.907 20.4987C121.853 20.9101 121.825 21.1844 121.825 21.3489C121.825 22.1717 122.072 22.83 122.539 23.2688C123.006 23.7351 123.665 23.9545 124.489 23.9545C125.422 23.9545 126.246 23.6528 126.933 23.022C127.647 22.3912 128.086 21.5409 128.278 20.4987C128.333 20.1147 128.361 19.8405 128.361 19.6759C128.361 18.8531 128.113 18.1948 127.619 17.7286C127.125 17.2623 126.493 17.0155 125.697 17.0155C124.736 17.0155 123.912 17.3172 123.226 17.948Z" fill="#00042D"/>
<path d="M144.15 15.5894C145.056 16.4397 145.523 17.5642 145.523 19.0178H142.283C142.255 18.387 142.035 17.8659 141.651 17.5093C141.239 17.1528 140.717 16.9608 140.003 16.9608C139.18 16.9608 138.438 17.2625 137.807 17.8659C137.175 18.4692 136.736 19.3469 136.544 20.4988C136.489 20.8005 136.461 21.1296 136.461 21.4862C136.461 22.3364 136.681 22.9672 137.093 23.4061C137.532 23.8449 138.081 24.0643 138.768 24.0643C139.454 24.0643 140.086 23.8723 140.635 23.5158C141.157 23.1592 141.541 22.6381 141.788 22.0073H145.029C144.534 23.4609 143.683 24.5854 142.475 25.4357C141.294 26.2859 139.921 26.6973 138.356 26.6973C136.791 26.6973 135.582 26.2585 134.649 25.3808C133.743 24.5031 133.276 23.2964 133.276 21.733C133.276 21.2668 133.331 20.7731 133.413 20.252C133.633 19.0452 134.072 17.9756 134.731 17.0979C135.39 16.2202 136.214 15.5346 137.203 15.0683C138.191 14.6021 139.235 14.3552 140.388 14.3552C141.981 14.3278 143.244 14.7666 144.15 15.5894Z" fill="#00042D"/>
<path d="M151.619 14.4923L149.642 25.6276C149.559 26.1488 149.093 26.5327 148.571 26.5327H146.429L148.406 15.3974C148.488 14.8763 148.955 14.4923 149.477 14.4923H151.619ZM149.422 9.93949C149.834 9.55551 150.383 9.36353 151.015 9.36353C151.509 9.36353 151.893 9.50066 152.168 9.7475C152.443 9.99434 152.58 10.3235 152.58 10.7349C152.58 11.3108 152.36 11.7771 151.948 12.1336C151.537 12.4902 151.015 12.6822 150.383 12.6822C149.889 12.6822 149.477 12.5725 149.202 12.3256C148.928 12.0788 148.791 11.7497 148.791 11.3383C148.791 10.7623 149.01 10.296 149.422 9.93949Z" fill="#00042D"/>
<path d="M158.182 10.4604L155.518 25.6275C155.436 26.1486 154.969 26.5326 154.447 26.5326H152.305L154.969 11.3655C155.051 10.8444 155.518 10.4604 156.04 10.4604H158.182Z" fill="#00042D"/>
<path d="M23.4369 7.32023C23.3985 9.56374 22.8713 11.6921 21.7399 13.7244C20.5564 15.85 18.8265 17.6135 16.9784 19.1577C14.7734 20.998 12.7112 23.0386 10.5858 24.9694C9.45445 25.9979 8.29016 27.0758 7.54325 28.4307C6.72495 29.9145 6.60688 31.7 6.78262 33.3538C6.84303 33.9352 6.99406 34.503 7.07644 35.0762C6.81283 34.8842 6.17027 34.5962 6.16203 34.5907C5.06913 34.0422 4.08333 33.3264 3.23757 32.4432C2.39181 31.5601 1.75475 30.6166 1.2385 29.5634C1.19182 29.4674 1.14789 29.3742 1.10395 29.2782C0.57947 28.1262 0.214255 26.8893 0.063227 25.6304C-0.181165 23.5843 0.271921 21.3381 1.6147 19.7254C2.83117 18.2635 4.40186 17.0184 5.78309 15.7156C5.78309 15.7156 11.1927 10.5868 17.9203 3.62034C19.4031 2.08444 20.5839 0.795379 21.3253 0C21.3253 0 22.4456 2.05976 22.517 2.22706C22.9921 3.36527 23.2969 4.54737 23.3903 5.76787C23.4314 6.29172 23.4479 6.80734 23.4369 7.32023Z" fill="#00042D"/>
<path d="M22.3386 36.5599C21.8718 36.0936 21.4049 35.6274 20.9381 35.1611C20.9793 35.2023 21.8553 34.5248 21.9322 34.4672C22.3715 34.1326 22.7917 33.7733 23.1871 33.3921C24.107 32.5035 24.8566 31.4942 25.5074 30.3971C26.5399 28.6555 27.2951 26.6999 27.3362 24.6539C27.3829 22.1718 26.3449 19.7143 24.6177 17.9426C24.5903 17.9151 24.2745 17.597 24.2635 17.6079C23.0553 18.7873 21.847 19.9941 20.6388 21.1734C18.7661 23.0439 16.8851 24.9007 14.9794 26.7411C13.9414 27.7449 12.9254 28.7981 12.1647 30.035C10.8714 32.1387 10.3854 34.725 10.8275 37.1523C11.2311 39.3657 12.4311 41.4282 14.1528 42.879C14.9931 43.5866 15.9432 44.1544 16.9839 44.5137C19.3729 45.3365 22.0914 45.0896 24.5628 43.9651C25.6612 43.444 26.7321 42.7858 27.6932 41.9356C25.9358 40.1254 24.1509 38.3426 22.3386 36.5599Z" fill="#00042D"/>
</svg>
