<svg width="76" height="77" viewBox="0 0 76 77" fill="none" xmlns="http://www.w3.org/2000/svg">
<g filter="url(#filter0_di_2412_8233)">
<path fill-rule="evenodd" clip-rule="evenodd" d="M34 64.1748C50.5685 64.1748 64 50.7433 64 34.1748C64 17.6063 50.5685 4.1748 34 4.1748C17.4315 4.1748 4 17.6063 4 34.1748C4 50.7433 17.4315 64.1748 34 64.1748ZM32.7222 41.943C32.7222 41.0255 33.4912 40.2564 34.4087 40.2564C35.3329 40.2564 36.0952 41.0187 36.0547 41.9834C36.0952 42.8604 35.2924 43.6295 34.4087 43.6295C33.4912 43.6295 32.7222 42.8604 32.7222 41.943ZM50.0188 46.2335C51.078 44.4053 51.0847 42.2263 50.0323 40.4048L39.4679 22.1094C38.4222 20.2677 36.5333 19.1748 34.415 19.1748C32.2967 19.1748 30.4078 20.2744 29.3622 22.1026L18.7843 40.4183C17.7319 42.26 17.7386 44.4525 18.8045 46.2807C19.8569 48.0887 21.7391 49.1748 23.8439 49.1748H44.9457C47.0573 49.1748 48.9529 48.0752 50.0188 46.2335ZM47.7251 44.9113C47.1382 45.9232 46.0993 46.5236 44.939 46.5236H23.8371C22.6903 46.5236 21.6581 45.9367 21.0847 44.945C20.5045 43.9398 20.4978 42.739 21.0779 41.7271L31.6559 23.4181C32.2293 22.4129 33.2547 21.8193 34.415 21.8193C35.5686 21.8193 36.6008 22.4197 37.1742 23.4249L47.7454 41.7338C48.312 42.7188 48.3053 43.9061 47.7251 44.9113ZM32.6881 30.2587C32.6881 29.375 33.1873 28.6464 33.9901 28.417C34.7929 28.2281 35.5957 28.6126 35.9397 29.3682C36.0544 29.6381 36.0949 29.9079 36.0949 30.2115C36.0747 30.6331 36.046 31.0547 36.0173 31.4763C35.9886 31.898 35.96 32.3196 35.9397 32.7413C35.9026 33.3923 35.8638 34.0433 35.825 34.6943C35.7863 35.3453 35.7475 35.9963 35.7104 36.6473C35.6699 37.0723 35.6699 37.4568 35.6699 37.8751C35.6362 38.5699 35.0965 39.1029 34.4084 39.1029C33.7203 39.1029 33.1873 38.6036 33.1468 37.9155C33.0895 36.9007 33.0322 35.8959 32.9749 34.8912C32.9175 33.8856 32.8602 32.88 32.8028 31.8643C32.7825 31.5978 32.764 31.3296 32.7454 31.0614C32.7269 30.7933 32.7083 30.5251 32.6881 30.2587Z" fill="white"/>
</g>
<path d="M34.4087 40.2563C33.4912 40.2563 32.7222 41.0254 32.7222 41.9429C32.7222 42.8604 33.4912 43.6294 34.4087 43.6294C35.2924 43.6294 36.0952 42.8604 36.0548 41.9834C36.0952 41.0187 35.3329 40.2563 34.4087 40.2563Z" fill="#FFAB00"/>
<path d="M50.0188 46.2335C51.078 44.4053 51.0847 42.2263 50.0323 40.4048L39.4679 22.1094C38.4222 20.2677 36.5333 19.1748 34.415 19.1748C32.2968 19.1748 30.4078 20.2744 29.3622 22.1026L18.7843 40.4183C17.7319 42.26 17.7386 44.4525 18.8045 46.2807C19.8569 48.0887 21.7391 49.1748 23.8439 49.1748H44.9457C47.0573 49.1748 48.9529 48.0752 50.0188 46.2335ZM47.7251 44.9113C47.1382 45.9232 46.0993 46.5236 44.939 46.5236H23.8371C22.6903 46.5236 21.6581 45.9367 21.0847 44.945C20.5045 43.9398 20.4978 42.739 21.078 41.7271L31.6559 23.4181C32.2293 22.4129 33.2547 21.8193 34.415 21.8193C35.5686 21.8193 36.6008 22.4197 37.1742 23.4249L47.7454 41.7338C48.312 42.7188 48.3053 43.9061 47.7251 44.9113Z" fill="#FFAB00"/>
<path d="M33.99 28.417C33.1872 28.6464 32.688 29.3749 32.688 30.2587C32.7285 30.7916 32.7622 31.3313 32.8027 31.8643C32.9174 33.8948 33.032 35.885 33.1467 37.9155C33.1872 38.6036 33.7201 39.1029 34.4082 39.1029C35.0964 39.1029 35.636 38.5699 35.6698 37.8751C35.6698 37.4568 35.6698 37.0723 35.7102 36.6473C35.7845 35.3453 35.8654 34.0433 35.9396 32.7413C35.9801 31.898 36.0543 31.0547 36.0948 30.2115C36.0948 29.9079 36.0543 29.638 35.9396 29.3682C35.5956 28.6126 34.7928 28.2281 33.99 28.417Z" fill="#FFAB00"/>
<defs>
<filter id="filter0_di_2412_8233" x="0" y="0.174805" width="76" height="76" filterUnits="userSpaceOnUse" color-interpolation-filters="sRGB">
<feFlood flood-opacity="0" result="BackgroundImageFix"/>
<feColorMatrix in="SourceAlpha" type="matrix" values="0 0 0 0 0 0 0 0 0 0 0 0 0 0 0 0 0 0 127 0" result="hardAlpha"/>
<feOffset dx="4" dy="4"/>
<feGaussianBlur stdDeviation="4"/>
<feComposite in2="hardAlpha" operator="out"/>
<feColorMatrix type="matrix" values="0 0 0 0 0.568627 0 0 0 0 0.619608 0 0 0 0 0.670588 0 0 0 0.16 0"/>
<feBlend mode="normal" in2="BackgroundImageFix" result="effect1_dropShadow_2412_8233"/>
<feBlend mode="normal" in="SourceGraphic" in2="effect1_dropShadow_2412_8233" result="shape"/>
<feColorMatrix in="SourceAlpha" type="matrix" values="0 0 0 0 0 0 0 0 0 0 0 0 0 0 0 0 0 0 127 0" result="hardAlpha"/>
<feOffset dx="-1" dy="-1"/>
<feGaussianBlur stdDeviation="1"/>
<feComposite in2="hardAlpha" operator="arithmetic" k2="-1" k3="1"/>
<feColorMatrix type="matrix" values="0 0 0 0 0.568627 0 0 0 0 0.619608 0 0 0 0 0.670588 0 0 0 0.48 0"/>
<feBlend mode="normal" in2="shape" result="effect2_innerShadow_2412_8233"/>
</filter>
</defs>
</svg>
