
<svg width="201" height="150" viewBox="0 0 201 150" fill="none" xmlns="http://www.w3.org/2000/svg">
<g opacity="0.2">
<mask id="mask0_1115_2968" style="mask-type:alpha" maskUnits="userSpaceOnUse" x="0" y="0" width="201" height="150">
<path opacity="0.48" fill-rule="evenodd" clip-rule="evenodd" d="M0.5 82.8253C0.5 100.099 6.72724 115.84 16.9746 127.736C28.7306 141.388 45.778 149.971 64.7803 150C73.085 150.012 81.0259 148.38 88.3199 145.401C92.0913 143.861 96.3124 144.037 99.9651 145.863C104.25 148.002 109.048 149.201 114.114 149.201C116.207 149.201 118.256 148.995 120.239 148.603C125.897 147.491 131.047 144.858 135.276 141.128C137.934 138.784 141.338 137.605 144.817 137.609H144.876C156.371 137.609 167.049 133.971 175.914 127.736C183.84 122.169 190.312 114.529 194.624 105.559C198.384 97.7421 200.5 88.9117 200.5 79.5658C200.5 47.5113 175.594 21.5222 144.876 21.5222C141.744 21.5222 138.676 21.7982 135.683 22.3132C127.757 8.92503 113.565 0 97.3743 0C90.5388 0 84.0585 1.5907 78.2578 4.44218C72.7413 7.14514 67.8365 10.9859 63.8243 15.6667C50.2006 15.8933 37.6033 20.5375 27.2929 28.2881C11.0631 40.4813 0.5 60.3676 0.5 82.8253Z" fill="url(#paint0_linear_1115_2968)"/>
</mask>
<g mask="url(#mask0_1115_2968)">
<rect x="0.5" width="200" height="150" fill="#0063FF"/>
</g>
</g>
<path opacity="0.05" d="M122.586 85.9132C121.649 87.0269 120.638 87.0082 120.035 86.8512L120.057 86.2745C120.057 86.2745 122.549 85.1359 122.485 85.3751C122.461 85.4648 122.509 85.6803 122.586 85.9132Z" fill="#FF5630"/>
<path opacity="0.05" d="M129.413 87.1737C127.823 88.0931 126.89 87.0155 126.673 86.7103C126.806 86.3603 127.007 85.7922 126.966 85.6303C126.906 85.3898 129.394 86.5284 129.394 86.5284L129.413 87.1737Z" fill="#FF5630"/>
<path opacity="0.05" d="M127.709 78.0015C127.709 78.0015 129.223 77.1295 129.553 77.5219C129.883 77.9143 127.709 78.0015 127.709 78.0015Z" fill="#FF5630"/>
<path opacity="0.05" d="M128.624 78.4812C128.624 78.4812 128.375 78.6058 128.924 78.7652C129.473 78.9247 128.624 78.4812 128.624 78.4812Z" fill="#FF5630"/>
<path opacity="0.05" d="M119.472 76.0831C119.421 76.0981 120.731 76.9676 121.915 76.2476C121.91 76.2476 119.767 75.9934 119.472 76.0831Z" fill="#FF5630"/>
<path opacity="0.05" d="M121.85 77.7462C121.85 77.7462 121.491 78.4513 120.756 78.5559C120.021 78.6606 121.85 77.7462 121.85 77.7462Z" fill="#FF5630"/>
<path opacity="0.05" d="M126.661 79.2759C126.661 79.2759 128.385 82.0165 128.055 82.663C127.724 83.3095 126.661 79.2759 126.661 79.2759Z" fill="#FF5630"/>
<path opacity="0.05" d="M123.259 90.1734C123.259 90.3266 123.259 90.4698 123.244 90.5882C123.199 91.1425 121.835 90.9332 121.835 90.9332C120.589 91.1064 120.141 90.5085 119.992 89.9367C119.946 89.7509 119.923 89.5601 119.924 89.3686C119.923 89.2545 119.931 89.1404 119.946 89.0273V88.9139C120.215 88.833 120.506 88.8924 120.721 89.0721C121.275 89.5218 122.01 89.1768 122.01 89.1768C122.01 89.1768 122.55 89.2216 122.758 89.401C122.875 89.5019 123.068 89.259 123.215 89.0273C123.224 89.1768 123.237 89.4471 123.246 89.7361C123.256 89.8843 123.259 90.0338 123.259 90.1734Z" fill="#FF5630"/>
<path opacity="0.05" d="M121.071 90.141C121.071 90.141 120.697 90.5073 119.992 89.9417C119.946 89.756 119.923 89.5651 119.924 89.3737C120.284 89.6477 120.952 90.141 121.071 90.141Z" fill="#FF5630"/>
<path opacity="0.05" d="M123.258 90.1734C123.197 90.2208 123.119 90.2407 123.042 90.2284C122.965 90.2162 122.897 90.1728 122.854 90.1086C122.999 89.998 123.132 89.8728 123.252 89.7349C123.256 89.8843 123.258 90.0338 123.258 90.1734Z" fill="#FF5630"/>
<path opacity="0.05" d="M126.182 90.4301C126.182 90.5846 126.182 90.7278 126.196 90.8449C126.241 91.4005 127.605 91.19 127.605 91.19C128.851 91.3644 129.299 90.7664 129.447 90.1934C129.521 89.896 129.537 89.5873 129.494 89.284V89.1707C129.225 89.0911 128.934 89.1504 128.717 89.3289C128.163 89.7786 127.429 89.4335 127.429 89.4335C127.429 89.4335 126.89 89.4796 126.682 89.659C126.565 89.7599 126.372 89.517 126.226 89.2853C126.217 89.4348 126.202 89.7051 126.194 89.9941C126.184 90.1398 126.181 90.2893 126.182 90.4301Z" fill="#FF5630"/>
<path opacity="0.05" d="M128.37 90.3953C128.37 90.3953 128.744 90.7615 129.448 90.1959C129.495 90.0107 129.518 89.8203 129.517 89.6292C129.156 89.902 128.488 90.3953 128.37 90.3953Z" fill="#FF5630"/>
<path opacity="0.05" d="M126.182 90.4301C126.244 90.4774 126.322 90.4973 126.398 90.4851C126.475 90.4728 126.543 90.4294 126.586 90.3653C126.441 90.2549 126.307 90.1296 126.187 89.9916C126.184 90.1398 126.181 90.2893 126.182 90.4301Z" fill="#FF5630"/>
<g opacity="0.05">
<path d="M133.673 44.2788C133.699 44.2215 133.724 44.1642 133.748 44.1081C133.771 44.0521 133.78 44.0209 133.794 43.9761C133.748 44.0747 133.707 44.1757 133.673 44.2788Z" fill="#FF5630"/>
</g>
<path fill-rule="evenodd" clip-rule="evenodd" d="M66.1634 116.442C65.8615 116.078 65.7231 115.606 65.781 115.138L71.2796 70.146L71.7355 66.4089C71.8412 65.5489 72.5683 64.9007 73.4347 64.8941L89.5405 64.7869C90.0038 64.7841 90.4465 64.5948 90.7685 64.2617C91.0906 63.9286 91.2649 63.4799 91.2522 63.0168L91.2459 62.8461C91.2301 62.379 91.4045 61.9255 91.7293 61.5894C92.0541 61.2534 92.5014 61.0635 92.9688 61.0635H109.893C110.843 61.0635 111.614 61.8325 111.616 62.7826C111.616 62.86 111.611 62.9374 111.601 63.0143C111.536 63.4992 111.68 63.9888 111.998 64.3609C112.315 64.7331 112.776 64.9528 113.265 64.9651L129.519 65.3799C130.019 65.3922 130.489 65.6214 130.807 66.0079C131.125 66.3944 131.259 66.9 131.174 67.393L123.048 114.855L122.895 115.752C122.857 115.981 122.772 116.2 122.645 116.395L66.1634 116.442Z" fill="#00042D"/>
<rect x="115.214" y="51.5316" width="9.51728" height="32.3027" transform="rotate(34.64 115.214 51.5316)" fill="white"/>
<rect x="115.779" y="52.7908" width="6.71903" height="6.71903" transform="rotate(34.804 115.779 52.7908)" fill="#FFAB00"/>
<rect opacity="0.5" x="111.457" y="59.4395" width="6.72812" height="6.72812" transform="rotate(34.64 111.457 59.4395)" fill="#FFAB00"/>
<rect opacity="0.3" x="106.838" y="66.1226" width="6.72813" height="6.72813" transform="rotate(34.64 106.838 66.1226)" fill="#FFAB00"/>
<rect x="104.151" y="49.8672" width="9.51729" height="32.1806" transform="rotate(16.29 104.151 49.8672)" fill="white"/>
<rect x="105.351" y="50.7588" width="6.72812" height="6.72812" transform="rotate(16.29 105.351 50.7588)" fill="#FF5630"/>
<rect opacity="0.5" x="103.072" y="58.5553" width="6.72812" height="6.72812" transform="rotate(16.29 103.072 58.5553)" fill="#FF5630"/>
<rect opacity="0.3" x="100.794" y="66.3507" width="6.72813" height="6.72813" transform="rotate(16.29 100.794 66.3507)" fill="#FF5630"/>
<rect x="97.6807" y="50.3542" width="9.51729" height="32.1806" transform="rotate(4.6 97.6807 50.3542)" fill="white"/>
<rect x="99.0308" y="50.985" width="6.72812" height="6.72812" transform="rotate(4.6 99.0308 50.985)" fill="#00B8D9"/>
<rect opacity="0.5" x="98.3784" y="59.0798" width="6.72812" height="6.72812" transform="rotate(4.6 98.3784 59.0798)" fill="#00B8D9"/>
<rect opacity="0.3" x="97.7275" y="67.1772" width="6.72812" height="6.72812" transform="rotate(4.6 97.7275 67.1772)" fill="#00B8D9"/>
<rect x="93.4126" y="51.6439" width="9.51728" height="32.1806" transform="rotate(-2.61 93.4126 51.6439)" fill="white"/>
<rect x="94.8301" y="52.0984" width="6.72813" height="6.72812" transform="rotate(-2.61 94.8301 52.0984)" fill="#0063FF"/>
<rect opacity="0.5" x="95.4634" y="59.9552" width="6.73653" height="6.73653" transform="rotate(-2.86241 95.4634 59.9552)" fill="#0063FF"/>
<rect opacity="0.3" x="95.5693" y="68.327" width="6.72812" height="6.72813" transform="rotate(-2.61 95.5693 68.327)" fill="#0063FF"/>
<path d="M97.4498 94.0525L88.9939 97.3238L76.6351 102.101C76.168 101.229 75.4803 100.051 74.6295 98.6442C71.7021 93.7934 66.8587 86.2481 62.546 79.6171C57.6877 72.1428 53.5059 65.8357 53.5059 65.8357L56.533 64.9637L81.2605 57.7847L97.4498 94.0525Z" fill="#F4F6F8"/>
<path opacity="0.1" d="M97.4498 94.0525L88.9939 97.3237C84.2701 98.3079 79.4497 98.7509 74.6257 98.6442C71.6983 93.7934 66.855 86.2481 62.5423 79.6171L56.5342 64.9588L81.2604 57.7847L97.4498 94.0525Z" fill="black"/>
<path d="M103.741 92.0171C103.741 92.0171 90.6045 99.7879 70.9919 98.0302L55.3569 59.9112L62.8499 58.6231L88.7534 54.1747L103.453 91.2759L103.741 92.0171Z" fill="#0063FF"/>
<path opacity="0.1" d="M103.448 91.2809C100.354 91.4329 96.7755 91.4179 93.1754 90.9882C89.2788 90.5297 85.3597 89.5855 82 87.8539C79.1909 86.4077 76.7892 84.8343 74.6951 82.947C69.2476 78.0476 65.8767 71.0392 62.8496 58.6281L88.7531 54.1797L103.448 91.2809Z" fill="#FF5630"/>
<path d="M113.084 89.1495C113.084 89.1495 103.401 91.0455 93.5452 89.8782C89.6486 89.4198 85.7296 88.4756 82.3699 86.744C79.5608 85.2977 77.1603 83.7244 75.065 81.8371C68.3232 75.7717 64.7629 66.4762 61.0918 47.7045C61.0918 47.7045 77.189 51.5898 93.1067 43.0791C93.1018 43.0853 98.4671 76.5677 113.084 89.1495Z" fill="white"/>
<g opacity="0.3">
<path d="M69.4185 54.5957C69.4185 54.5957 82.5085 53.8557 86.1634 51.0342L86.7177 52.8156C86.7177 52.8156 78.0687 56.6312 69.4185 56.6773V54.5957Z" fill="#0063FF"/>
<path d="M69.4185 63.3904C69.4185 63.3904 82.0924 62.6966 91.6682 58.0712L91.9921 58.8112C91.9921 58.8112 84.3932 63.2472 69.4185 64.4082V63.3904Z" fill="#0063FF"/>
<path d="M70.439 66.8175C70.439 66.8175 83.1129 66.1236 92.6875 61.4983L93.0114 62.2382C93.0114 62.2382 85.4125 66.673 70.439 67.8352V66.8175Z" fill="#0063FF"/>
<path d="M71.4578 70.2494C71.4578 70.2494 84.1318 69.5555 93.7076 64.9302L94.0302 65.6701C94.0302 65.6701 86.4314 70.1061 71.4578 71.2671V70.2494Z" fill="#0063FF"/>
<path d="M72.4779 73.6814C72.4779 73.6814 85.1519 72.9875 94.7265 68.3622L95.0504 69.1021C95.0504 69.1021 87.4515 73.5381 72.4779 74.6991V73.6814Z" fill="#0063FF"/>
<path d="M73.4968 77.1145C73.4968 77.1145 86.1708 76.4206 95.7466 71.7953L96.0692 72.5352C96.0692 72.5352 88.4704 76.97 73.4968 78.1323V77.1145Z" fill="#0063FF"/>
</g>
<path d="M162.612 119.727C162.612 119.727 157.345 119.409 157.966 123.1C157.966 123.1 157.841 123.752 158.434 124.048C158.434 124.048 158.443 123.774 158.973 123.868C159.163 123.9 159.355 123.909 159.546 123.895C159.805 123.878 160.05 123.776 160.245 123.606C160.245 123.606 161.726 122.994 162.302 120.575C162.302 120.575 162.728 120.047 162.71 119.911L161.822 120.285C161.822 120.285 162.126 120.927 161.887 121.458C161.887 121.458 161.858 120.309 161.688 120.337C161.653 120.337 161.226 120.559 161.226 120.559C161.226 120.559 161.748 121.68 161.35 122.487C161.35 122.487 161.5 121.111 161.059 120.64L160.436 121.005C160.436 121.005 161.046 122.159 160.633 123.1C160.633 123.1 160.738 121.657 160.304 121.093L159.737 121.536C159.737 121.536 160.311 122.673 159.961 123.454C159.961 123.454 159.915 121.772 159.614 121.645C159.614 121.645 159.115 122.083 159.043 122.268C159.043 122.268 159.435 123.093 159.191 123.529C159.191 123.529 159.042 122.408 158.92 122.408C158.92 122.408 158.421 123.155 158.374 123.653C158.374 123.653 158.395 122.896 158.8 122.332C158.515 122.386 158.252 122.523 158.043 122.724C158.043 122.724 158.12 122.198 158.922 122.154C158.922 122.154 159.331 121.591 159.439 121.556C159.439 121.556 158.642 121.49 158.159 121.704C158.159 121.704 158.585 121.206 159.586 121.434L160.146 120.978C160.146 120.978 159.095 120.833 158.651 120.993C158.651 120.993 159.163 120.554 160.296 120.868L160.905 120.504C160.905 120.504 160.011 120.311 159.478 120.38C159.478 120.38 160.04 120.076 161.085 120.405L161.52 120.209C161.52 120.209 160.864 120.084 160.672 120.06C160.481 120.035 160.469 119.987 160.469 119.987C160.885 119.917 161.312 119.965 161.701 120.124C161.701 120.124 162.627 119.785 162.612 119.727Z" fill="#0063FF"/>
<path d="M165.065 107.543C165.065 107.543 162.096 107.363 162.449 109.445C162.412 109.661 162.518 109.877 162.712 109.979C162.712 109.979 162.718 109.825 163.017 109.877C163.124 109.895 163.232 109.9 163.34 109.892C163.485 109.883 163.623 109.826 163.733 109.73C163.733 109.73 164.568 109.385 164.893 108.021C164.893 108.021 165.134 107.723 165.124 107.647L164.625 107.86C164.625 107.86 164.796 108.223 164.661 108.523C164.661 108.523 164.645 107.874 164.549 107.889C164.529 107.889 164.289 108.013 164.289 108.013C164.289 108.013 164.583 108.636 164.361 109.101C164.361 109.101 164.446 108.325 164.197 108.058L163.844 108.265C163.844 108.265 164.188 108.915 163.955 109.446C163.955 109.446 164.015 108.631 163.769 108.315L163.451 108.564C163.451 108.564 163.773 109.206 163.575 109.645C163.575 109.645 163.549 108.697 163.38 108.626C163.259 108.729 163.15 108.846 163.057 108.974C163.057 108.974 163.279 109.44 163.142 109.685C163.142 109.685 163.057 109.054 162.988 109.051C162.988 109.051 162.709 109.468 162.681 109.755C162.694 109.489 162.777 109.231 162.921 109.008C162.76 109.038 162.611 109.115 162.494 109.229C162.494 109.229 162.537 108.933 162.992 108.908C162.992 108.908 163.223 108.59 163.284 108.57C163.284 108.57 162.834 108.533 162.561 108.654C162.561 108.654 162.802 108.375 163.366 108.502L163.682 108.244C163.682 108.244 163.089 108.163 162.839 108.253C162.839 108.253 163.128 108.003 163.767 108.185L164.111 107.98C163.846 107.922 163.575 107.899 163.305 107.911C163.305 107.911 163.622 107.739 164.21 107.925L164.46 107.815C164.46 107.815 164.086 107.742 163.981 107.731C163.877 107.719 163.867 107.69 163.867 107.69C164.101 107.651 164.342 107.677 164.562 107.767C164.562 107.767 165.075 107.575 165.065 107.543Z" fill="#0063FF"/>
<path d="M147.54 109.349C147.54 109.349 143.955 109.132 144.379 111.645C144.333 111.906 144.462 112.166 144.696 112.29C144.696 112.29 144.696 112.103 145.07 112.165C145.199 112.187 145.33 112.193 145.46 112.184C145.636 112.172 145.803 112.103 145.936 111.987C145.936 111.987 146.943 111.571 147.336 109.924C147.336 109.924 147.626 109.566 147.614 109.472L147.002 109.731C147.002 109.731 147.209 110.167 147.046 110.53C147.046 110.53 147.026 109.747 146.91 109.765C146.886 109.765 146.596 109.917 146.596 109.917C146.596 109.917 146.951 110.677 146.683 111.23C146.683 111.23 146.785 110.293 146.485 109.972L146.059 110.221C146.059 110.221 146.474 111.007 146.192 111.647C146.192 111.647 146.265 110.664 145.969 110.277L145.583 110.578C145.583 110.578 145.974 111.352 145.735 111.884C145.735 111.884 145.705 110.739 145.5 110.653C145.5 110.653 145.162 110.951 145.111 111.073C145.111 111.073 145.378 111.635 145.212 111.931C145.212 111.931 145.11 111.169 145.026 111.165C145.026 111.165 144.691 111.671 144.653 112.016C144.669 111.696 144.769 111.386 144.943 111.116C144.749 111.153 144.57 111.247 144.428 111.384C144.428 111.384 144.481 111.027 145.026 110.996C145.026 110.996 145.304 110.612 145.379 110.59C145.379 110.59 144.836 110.543 144.507 110.689C144.507 110.689 144.796 110.353 145.477 110.506L145.858 110.195C145.858 110.195 145.145 110.097 144.841 110.205C144.841 110.205 145.189 109.907 145.962 110.125L146.377 109.876C146.377 109.876 145.768 109.745 145.404 109.792C145.404 109.792 145.787 109.585 146.497 109.81L146.794 109.676C146.794 109.676 146.348 109.589 146.217 109.576C146.086 109.562 146.08 109.526 146.08 109.526C146.363 109.478 146.653 109.51 146.919 109.618C146.919 109.618 147.551 109.387 147.54 109.349Z" fill="#0063FF"/>
<rect x="116.388" y="52.0891" width="21.2607" height="38.0467" rx="4.73723" transform="rotate(-71.99 116.388 52.0891)" fill="white"/>
<g opacity="0.24">
<path d="M130.912 43.1279C130.912 45.2854 129.163 47.0345 127.005 47.0345C124.848 47.0345 123.099 45.2854 123.099 43.1279C123.099 40.9703 124.848 39.2213 127.005 39.2213C129.163 39.2213 130.912 40.9703 130.912 43.1279Z" fill="#0063FF"/>
<path d="M136.352 42.4246L136.683 41.407L152.869 46.6693L152.538 47.687L136.352 42.4246Z" fill="#0063FF"/>
<path d="M135.508 45.0191L135.839 44.0015L144.085 46.6821L143.754 47.6998L135.508 45.0191Z" fill="#0063FF"/>
<path d="M134.663 47.6153L134.994 46.5977L148.33 50.9334L147.999 51.951L134.663 47.6153Z" fill="#0063FF"/>
<path d="M133.82 50.2105L134.151 49.1928L150.337 54.4552L150.006 55.4729L133.82 50.2105Z" fill="#0063FF"/>
</g>
<rect opacity="0.5" x="144" y="58.714" width="2.06914" height="4.71006" transform="rotate(-71.99 144 58.714)" fill="#0063FF"/>
<rect x="113.069" y="89.009" width="20.9584" height="32.6269" rx="4" transform="rotate(-57.2648 113.069 89.009)" fill="white"/>
<path d="M130.125 94.6543L137.109 83.6625L138.189 84.3486L131.205 95.3404L130.125 94.6543Z" fill="#F4F6F8"/>
<path d="M132.432 96.1187L139.415 85.1269L140.495 85.813L133.512 96.8048L132.432 96.1187Z" fill="#F4F6F8"/>
<path d="M117.136 87.7793L120.316 82.7744L121.493 83.5226L118.313 88.5275L117.136 87.7793Z" fill="#C4CDD5"/>
<path d="M120.9 88.7932L127.883 77.8014L128.963 78.4875L121.979 89.4793L120.9 88.7932Z" fill="#C4CDD5"/>
<path d="M123.206 90.2574L130.19 79.2656L131.27 79.9517L124.286 90.9435L123.206 90.2574Z" fill="#C4CDD5"/>
<path d="M125.513 91.7241L132.496 80.7323L133.576 81.4184L126.592 92.4102L125.513 91.7241Z" fill="#C4CDD5"/>
<path d="M127.899 93.849L134.931 82.9099L136.006 83.6008L128.974 94.5399L127.899 93.849Z" fill="#C4CDD5"/>
<path d="M142.116 89.8747L143.925 87.0285L146.771 88.8369L144.962 91.6831L142.116 89.8747Z" fill="#C4CDD5"/>
<path d="M112.699 70.3167L93.6291 70.5223C92.9153 70.5298 92.3404 71.1102 92.3398 71.824V73.3999C92.3393 74.1066 91.7756 74.6841 91.0692 74.7016L77.309 75.0318C76.7089 75.0468 76.1763 74.6496 76.0196 74.0701L75.3731 71.6945C75.2181 71.1214 74.6949 70.7258 74.1012 70.7328L55.7207 70.9309C55.3395 70.9346 54.9792 71.1052 54.7347 71.3976C54.4902 71.69 54.3862 72.0749 54.45 72.4506L61.8446 115.971C61.9506 116.596 62.4905 117.053 63.124 117.056L121.192 117.305C121.581 117.307 121.95 117.134 122.199 116.834C122.447 116.535 122.549 116.14 122.476 115.758L113.99 71.3743C113.872 70.7557 113.328 70.3104 112.699 70.3167Z" fill="url(#paint1_linear_1115_2968)"/>
<g opacity="0.2">
<path d="M162.711 124.37C162.711 124.718 161.042 125 158.984 125C156.926 125 155.257 124.718 155.257 124.37C155.257 124.022 156.926 123.739 158.984 123.739C161.042 123.739 162.711 124.022 162.711 124.37Z" fill="#0063FF"/>
<path d="M165.123 110.16C165.123 110.356 164.182 110.515 163.022 110.515C161.861 110.515 160.92 110.356 160.92 110.16C160.92 109.964 161.861 109.805 163.022 109.805C164.182 109.805 165.123 109.964 165.123 110.16Z" fill="#0063FF"/>
<path d="M147.608 112.509C147.608 112.746 146.472 112.938 145.071 112.938C143.67 112.938 142.533 112.746 142.533 112.509C142.533 112.273 143.67 112.081 145.071 112.081C146.472 112.081 147.608 112.273 147.608 112.509Z" fill="#0063FF"/>
<path d="M52.3497 107.777C52.3497 107.93 51.4456 108.054 50.3303 108.054C49.2151 108.054 48.311 107.93 48.311 107.777C48.311 107.623 49.2151 107.499 50.3303 107.499C51.4456 107.499 52.3497 107.623 52.3497 107.777Z" fill="#0063FF"/>
<path d="M44.6149 108.56C44.6149 108.714 43.7108 108.838 42.5956 108.838C41.4803 108.838 40.5763 108.714 40.5763 108.56C40.5763 108.407 41.4803 108.282 42.5956 108.282C43.7108 108.282 44.6149 108.407 44.6149 108.56Z" fill="#0063FF"/>
<path d="M47.1264 110.794C47.1264 110.903 46.4839 110.991 45.6913 110.991C44.8988 110.991 44.2563 110.903 44.2563 110.794C44.2563 110.685 44.8988 110.597 45.6913 110.597C46.4839 110.597 47.1264 110.685 47.1264 110.794Z" fill="#0063FF"/>
<path d="M39.0986 110.597C39.0986 110.706 38.4561 110.794 37.6636 110.794C36.871 110.794 36.2285 110.706 36.2285 110.597C36.2285 110.488 36.871 110.4 37.6636 110.4C38.4561 110.4 39.0986 110.488 39.0986 110.597Z" fill="#0063FF"/>
</g>
<path d="M36.8728 110.149C36.7825 110.075 36.7169 109.975 36.6847 109.863C36.6529 109.747 36.7084 109.625 36.8167 109.573C36.9413 109.527 37.0659 109.61 37.1655 109.698C37.2652 109.785 37.3785 109.877 37.5031 109.856C37.3686 109.734 37.3081 109.55 37.3437 109.372C37.3488 109.336 37.3639 109.302 37.3873 109.274C37.4545 109.202 37.5766 109.233 37.6576 109.29C37.9067 109.47 37.9852 109.817 37.9864 110.131C37.9989 110.016 37.9989 109.9 37.9864 109.785C37.9798 109.667 38.032 109.554 38.126 109.482C38.1866 109.449 38.255 109.433 38.324 109.435C38.4398 109.418 38.5571 109.452 38.6467 109.527C38.7339 109.646 38.7288 109.809 38.6342 109.922C38.5388 110.029 38.4259 110.119 38.3004 110.188C38.2051 110.246 38.1238 110.324 38.0624 110.416C38.0549 110.429 38.049 110.442 38.045 110.456H37.32C37.1577 110.374 37.0073 110.271 36.8728 110.149Z" fill="#0063FF"/>
<path d="M49.5105 107.43C49.42 107.357 49.3543 107.258 49.3224 107.146C49.2904 107.031 49.3454 106.909 49.4532 106.856C49.5777 106.81 49.7023 106.893 49.802 106.981C49.9016 107.068 50.0137 107.163 50.142 107.144C50.0075 107.023 49.9465 106.84 49.9813 106.662C49.9869 106.625 50.0024 106.591 50.0262 106.563C50.0934 106.491 50.2155 106.522 50.2965 106.578C50.5519 106.759 50.6241 107.107 50.6254 107.42C50.6378 107.305 50.6378 107.188 50.6254 107.073C50.6141 106.956 50.6606 106.842 50.7499 106.766C50.8109 106.734 50.8791 106.718 50.948 106.72C51.0636 106.704 51.1806 106.737 51.2707 106.811C51.3582 106.931 51.3525 107.094 51.257 107.207C51.1622 107.315 51.0497 107.405 50.9243 107.474C50.829 107.531 50.7477 107.608 50.6864 107.701C50.6791 107.714 50.6733 107.728 50.669 107.742H49.9602C49.7967 107.659 49.6453 107.554 49.5105 107.43Z" fill="#0063FF"/>
<path d="M45.2989 110.149C45.2087 110.074 45.1428 109.975 45.1096 109.863C45.0778 109.747 45.1333 109.625 45.2416 109.573C45.3662 109.527 45.4907 109.61 45.5904 109.698C45.6901 109.785 45.8009 109.879 45.9305 109.862C45.7962 109.74 45.7353 109.557 45.7698 109.379C45.7753 109.342 45.7908 109.308 45.8146 109.28C45.8819 109.208 46.004 109.239 46.085 109.296C46.3403 109.476 46.4113 109.823 46.4138 110.137C46.4263 110.022 46.4263 109.906 46.4138 109.791C46.404 109.674 46.453 109.559 46.5446 109.485C46.6052 109.451 46.6736 109.435 46.7427 109.437C46.8584 109.421 46.9757 109.454 47.0653 109.529C47.1527 109.648 47.147 109.812 47.0516 109.924C46.9566 110.031 46.8442 110.121 46.719 110.191C46.6237 110.248 46.5425 110.326 46.4811 110.419C46.4736 110.431 46.4677 110.445 46.4637 110.459H45.7411C45.5806 110.375 45.4319 110.271 45.2989 110.149Z" fill="#0063FF"/>
<g opacity="0.08">
<path d="M38.389 36.2513C38.389 37.7394 37.1826 38.9458 35.6945 38.9458C34.2064 38.9458 33 37.7394 33 36.2513C33 34.7632 34.2064 33.5568 35.6945 33.5568C37.1826 33.5568 38.389 34.7632 38.389 36.2513Z" fill="#0063FF"/>
<path d="M167.955 57.7835C167.955 59.2716 166.748 60.478 165.26 60.478C163.772 60.478 162.566 59.2716 162.566 57.7835C162.566 56.2954 163.772 55.089 165.26 55.089C166.748 55.089 167.955 56.2954 167.955 57.7835Z" fill="#0063FF"/>
<path d="M119.519 27.6945C119.519 29.1826 118.313 30.389 116.824 30.389C115.336 30.389 114.13 29.1826 114.13 27.6945C114.13 26.2064 115.336 25 116.824 25C118.313 25 119.519 26.2064 119.519 27.6945Z" fill="#0063FF"/>
<path d="M45.5992 51.1165C45.5992 53.6104 43.5774 55.6322 41.0834 55.6322C38.5895 55.6322 36.5677 53.6104 36.5677 51.1165C36.5677 48.6225 38.5895 46.6007 41.0834 46.6007C43.5774 46.6007 45.5992 48.6225 45.5992 51.1165Z" fill="#0063FF"/>
</g>
<path fill-rule="evenodd" clip-rule="evenodd" d="M86.3454 87.4628C83.0224 87.4628 80.3286 90.1566 80.3286 93.4796C80.3286 96.8026 83.0224 99.4964 86.3454 99.4964C89.6684 99.4964 92.3622 96.8026 92.3622 93.4796C92.3622 90.1566 89.6684 87.4628 86.3454 87.4628V87.4628Z" fill="#00042D"/>
<path opacity="0.72" fill-rule="evenodd" clip-rule="evenodd" d="M86.3452 88.1626C89.2817 88.1626 91.6622 90.5431 91.6622 93.4795C91.6622 96.416 89.2817 98.7964 86.3452 98.7964C83.4088 98.7964 81.0283 96.416 81.0283 93.4795C81.0309 90.5441 83.4099 88.1652 86.3452 88.1626Z" fill="#0063FF"/>
<path fill-rule="evenodd" clip-rule="evenodd" d="M83.8573 93.9192L83.5663 93.6352C83.5035 93.5778 83.4678 93.4974 83.4678 93.4134C83.4678 93.3293 83.5035 93.249 83.5663 93.1915L86.1191 90.6981C86.178 90.6367 86.2603 90.6019 86.3464 90.6019C86.4326 90.6019 86.5148 90.6367 86.5737 90.6981L89.1265 93.1893C89.1882 93.2474 89.223 93.3275 89.223 93.4112C89.223 93.4948 89.1882 93.5749 89.1265 93.633L88.8355 93.917C88.776 93.9771 88.6939 94.0111 88.6082 94.0111C88.5225 94.0111 88.4404 93.9771 88.3809 93.917L86.8715 92.3641V96.0488C86.8721 96.1304 86.8393 96.2088 86.7804 96.2667C86.7215 96.3246 86.6414 96.3571 86.5578 96.3571H86.1373C85.9628 96.3571 85.8213 96.2191 85.8213 96.0488V92.3685L84.3119 93.9214C84.2521 93.9813 84.1699 94.0149 84.0841 94.0145C83.9984 94.014 83.9165 93.9796 83.8573 93.9192Z" fill="#00042D"/>
<path d="M42.5518 108.499C42.5518 108.499 45.3834 99.2162 42.1084 95.4977C39.658 92.716 36.8764 93.0486 35.6306 93.3924C34.9787 93.5666 34.436 94.0178 34.1457 94.6269C33.7097 95.5662 33.7882 97.091 36.8627 98.8711C42.0087 101.851 42.3289 105.938 42.3289 105.938L42.5518 108.499Z" fill="#0063FF"/>
<path d="M42.6669 108.573C42.6669 108.573 39.3495 101.826 38.4389 101.97C38.0067 102.041 37.8073 102.469 37.7164 102.895C37.6046 103.447 37.6677 104.021 37.897 104.537C38.3679 105.62 39.6323 107.67 42.6669 108.573Z" fill="#0063FF"/>
<path d="M42.5681 108.573C42.5681 108.573 45.8842 101.826 46.7948 101.97C47.2283 102.041 47.4277 102.469 47.5174 102.895C47.6292 103.447 47.566 104.021 47.3367 104.537C46.8658 105.62 45.6002 107.67 42.5681 108.573Z" fill="#0063FF"/>
<path fill-rule="evenodd" clip-rule="evenodd" d="M35.9765 94.6779C35.9937 94.623 36.0521 94.5924 36.107 94.6097L36.0759 94.7091C36.107 94.6097 36.107 94.6097 36.107 94.6097L36.1076 94.6099L36.109 94.6103L36.1141 94.6119L36.1329 94.6182C36.1494 94.6237 36.1734 94.632 36.2045 94.6432C36.2666 94.6656 36.3569 94.6997 36.4708 94.7471C36.6986 94.8418 37.021 94.9893 37.4015 95.2014C38.1623 95.6255 39.157 96.3083 40.0927 97.344C41.9677 99.419 43.5957 102.899 42.6563 108.516C42.6468 108.573 42.5932 108.611 42.5364 108.602C42.4797 108.592 42.4414 108.539 42.4509 108.482C43.38 102.925 41.7692 99.5101 39.9382 97.4837C39.0209 96.4685 38.0457 95.799 37.3001 95.3834C36.9273 95.1756 36.6122 95.0315 36.3909 94.9395C36.2802 94.8935 36.193 94.8605 36.1338 94.8391C36.1042 94.8285 36.0816 94.8207 36.0665 94.8156L36.0497 94.8101L36.0457 94.8088L36.0448 94.8085C35.99 94.7913 35.9593 94.7328 35.9765 94.6779Z" fill="#00042D"/>
<path fill-rule="evenodd" clip-rule="evenodd" d="M41.038 95.5864C41.0701 95.6341 41.0576 95.6988 41.0099 95.7309L41.0096 95.7312L41.0077 95.7325L40.9994 95.7383C40.9919 95.7437 40.9806 95.7519 40.9661 95.763C40.9372 95.7851 40.8958 95.8182 40.8469 95.8617C40.749 95.9489 40.6225 96.0764 40.5073 96.2381C40.2772 96.5612 40.0974 97.0122 40.2674 97.553C40.2847 97.6078 40.2542 97.6663 40.1993 97.6836C40.1444 97.7008 40.0859 97.6703 40.0687 97.6154C39.8725 96.9915 40.0845 96.4727 40.3377 96.1172C40.4642 95.9396 40.6022 95.8006 40.7084 95.7061C40.7616 95.6587 40.8072 95.6222 40.8397 95.5974C40.856 95.585 40.869 95.5754 40.8782 95.5689L40.8889 95.5613L40.892 95.5592L40.8929 95.5586L40.8933 95.5583C40.8933 95.5583 40.8934 95.5582 40.9496 95.6416L40.8933 95.5583C40.941 95.5261 41.0058 95.5387 41.038 95.5864Z" fill="#00042D"/>
<path fill-rule="evenodd" clip-rule="evenodd" d="M36.9872 96.4078L36.9882 96.4068L36.9931 96.402C36.9977 96.3976 37.0048 96.3908 37.0144 96.3822C37.0335 96.3651 37.0622 96.3404 37.0995 96.3118C37.1741 96.2544 37.282 96.182 37.4145 96.1213C37.6789 96.0003 38.0355 95.9282 38.4276 96.1092C38.4798 96.1333 38.5417 96.1105 38.5658 96.0582C38.5899 96.006 38.5671 95.9441 38.5149 95.92C38.0512 95.7061 37.6286 95.7941 37.3278 95.9319C37.1776 96.0006 37.0563 96.0822 36.9726 96.1466C36.9306 96.1788 36.8977 96.207 36.8751 96.2273C36.8637 96.2375 36.8549 96.2458 36.8488 96.2517L36.8416 96.2587L36.8396 96.2607L36.8389 96.2614L36.8386 96.2617C36.8386 96.2617 36.8386 96.2617 36.9129 96.3348L36.8386 96.2617C36.7983 96.3027 36.7988 96.3687 36.8398 96.4091C36.8809 96.4494 36.9468 96.4488 36.9872 96.4078Z" fill="#00042D"/>
<path fill-rule="evenodd" clip-rule="evenodd" d="M40.2597 100.023L40.2602 100.023L40.2624 100.022L40.2718 100.017C40.2802 100.013 40.2929 100.007 40.3093 99.9996C40.3421 99.9848 40.3897 99.9643 40.4479 99.9421C40.5648 99.8973 40.722 99.8464 40.8871 99.8189C41.0534 99.7911 41.2189 99.7888 41.3572 99.8331C41.4906 99.8758 41.6026 99.9628 41.6698 100.127C41.6915 100.181 41.7523 100.206 41.8056 100.185C41.8589 100.163 41.8844 100.102 41.8627 100.049C41.7704 99.8229 41.6085 99.6948 41.4208 99.6347C41.2379 99.5761 41.035 99.583 40.8528 99.6134C40.6693 99.6439 40.498 99.6999 40.3735 99.7475C40.3109 99.7714 40.2596 99.7935 40.2237 99.8097C40.2057 99.8178 40.1915 99.8245 40.1817 99.8292L40.1704 99.8347L40.1672 99.8362L40.1663 99.8367L40.166 99.8369C40.166 99.8369 40.1659 99.8369 40.2128 99.9299L40.166 99.8369C40.1146 99.8628 40.0939 99.9255 40.1198 99.9768C40.1457 100.028 40.2084 100.049 40.2597 100.023Z" fill="#00042D"/>
<path fill-rule="evenodd" clip-rule="evenodd" d="M38.4048 103.168C38.4522 103.135 38.5171 103.147 38.5497 103.194L38.464 103.253L38.3782 103.313C38.3455 103.265 38.3575 103.2 38.4048 103.168ZM38.464 103.253C38.3782 103.313 38.3782 103.313 38.3782 103.313L38.4176 103.37C38.4433 103.407 38.4811 103.461 38.5294 103.53C38.626 103.669 38.7647 103.867 38.9332 104.106C39.2703 104.583 39.7269 105.221 40.2046 105.867C40.6821 106.512 41.1816 107.166 41.6045 107.673C41.8158 107.926 42.0092 108.144 42.172 108.306C42.2534 108.388 42.3284 108.456 42.3953 108.509C42.4602 108.56 42.5248 108.602 42.5846 108.622C42.6392 108.64 42.6981 108.61 42.7161 108.555C42.7341 108.501 42.7044 108.442 42.6498 108.424C42.6255 108.416 42.5841 108.392 42.5241 108.345C42.4661 108.3 42.3974 108.237 42.3192 108.159C42.1629 108.003 41.974 107.79 41.7644 107.539C41.3455 107.037 40.8488 106.387 40.3721 105.743C39.8955 105.099 39.4399 104.462 39.1034 103.986C38.9351 103.747 38.7967 103.55 38.7003 103.411C38.6521 103.342 38.6144 103.288 38.5888 103.251L38.5497 103.194C38.5497 103.194 38.5497 103.194 38.464 103.253Z" fill="#00042D"/>
<path fill-rule="evenodd" clip-rule="evenodd" d="M38.0396 104.042C38.0396 103.984 38.0862 103.938 38.1437 103.938H38.9559C39.0135 103.938 39.0601 103.984 39.0601 104.042C39.0601 104.1 39.0135 104.146 38.9559 104.146H38.1437C38.0862 104.146 38.0396 104.1 38.0396 104.042Z" fill="#00042D"/>
<path fill-rule="evenodd" clip-rule="evenodd" d="M39.0126 105.884C39.015 105.826 39.0636 105.782 39.1211 105.784L40.3955 105.839C40.453 105.841 40.4975 105.89 40.4951 105.947C40.4926 106.005 40.444 106.049 40.3865 106.047L39.1122 105.992C39.0547 105.99 39.0101 105.941 39.0126 105.884Z" fill="#00042D"/>
<path fill-rule="evenodd" clip-rule="evenodd" d="M39.9138 104.309C39.9701 104.32 40.0062 104.376 39.9945 104.432L39.8562 105.096C39.8445 105.152 39.7893 105.188 39.733 105.177C39.6767 105.165 39.6405 105.11 39.6523 105.053L39.7905 104.389C39.8023 104.333 39.8574 104.297 39.9138 104.309Z" fill="#00042D"/>
<path fill-rule="evenodd" clip-rule="evenodd" d="M41.2509 106.326C41.3084 106.328 41.3531 106.377 41.3507 106.434L41.3258 107.037C41.3234 107.095 41.2749 107.139 41.2174 107.137C41.1599 107.135 41.1153 107.086 41.1176 107.029L41.1426 106.426C41.1449 106.368 41.1934 106.324 41.2509 106.326Z" fill="#00042D"/>
<path fill-rule="evenodd" clip-rule="evenodd" d="M46.686 103.194C46.7187 103.147 46.7836 103.135 46.8309 103.168C46.8782 103.2 46.8901 103.265 46.8574 103.313L46.7717 103.253L46.686 103.194ZM46.686 103.194C46.686 103.194 46.686 103.194 46.7717 103.253C46.8574 103.313 46.8574 103.313 46.8574 103.313L46.8179 103.37C46.7921 103.407 46.7543 103.461 46.7059 103.53C46.6091 103.669 46.4701 103.867 46.3013 104.106C45.9636 104.583 45.5063 105.221 45.0281 105.867C44.55 106.512 44.0501 107.166 43.6275 107.673C43.4163 107.926 43.2231 108.144 43.0607 108.306C42.9796 108.388 42.9048 108.456 42.8383 108.509C42.7737 108.56 42.7095 108.602 42.6501 108.622C42.5955 108.64 42.5365 108.61 42.5184 108.556C42.5002 108.501 42.5297 108.442 42.5843 108.424C42.6082 108.416 42.6493 108.393 42.7091 108.345C42.7669 108.3 42.8354 108.237 42.9134 108.159C43.0693 108.003 43.258 107.79 43.4675 107.539C43.8863 107.037 44.3834 106.387 44.8607 105.743C45.3377 105.099 45.7941 104.462 46.1312 103.985C46.2998 103.747 46.4385 103.549 46.5351 103.411C46.5834 103.342 46.6211 103.288 46.6468 103.251L46.686 103.194Z" fill="#00042D"/>
<path fill-rule="evenodd" clip-rule="evenodd" d="M46.1751 104.042C46.1751 103.984 46.2218 103.938 46.2793 103.938H47.0915C47.149 103.938 47.1957 103.984 47.1957 104.042C47.1957 104.1 47.149 104.146 47.0915 104.146H46.2793C46.2218 104.146 46.1751 104.1 46.1751 104.042Z" fill="#00042D"/>
<path fill-rule="evenodd" clip-rule="evenodd" d="M46.2226 105.884C46.2251 105.941 46.1805 105.99 46.123 105.992L44.8486 106.047C44.7912 106.049 44.7426 106.005 44.7401 105.947C44.7376 105.89 44.7822 105.841 44.8397 105.839L46.1141 105.784C46.1715 105.782 46.2201 105.826 46.2226 105.884Z" fill="#00042D"/>
<path fill-rule="evenodd" clip-rule="evenodd" d="M45.3214 104.309C45.3777 104.297 45.4329 104.333 45.4446 104.389L45.5829 105.053C45.5946 105.11 45.5585 105.165 45.5021 105.177C45.4458 105.188 45.3906 105.152 45.3789 105.096L45.2406 104.432C45.2289 104.376 45.2651 104.32 45.3214 104.309Z" fill="#00042D"/>
<path fill-rule="evenodd" clip-rule="evenodd" d="M43.9843 106.326C44.0418 106.324 44.0903 106.368 44.0927 106.426L44.1176 107.029C44.12 107.086 44.0753 107.135 44.0179 107.137C43.9604 107.139 43.9119 107.095 43.9095 107.037L43.8846 106.434C43.8822 106.377 43.9269 106.328 43.9843 106.326Z" fill="#00042D"/>
<defs>
<linearGradient id="paint0_linear_1115_2968" x1="100.5" y1="150" x2="178.383" y2="10.5074" gradientUnits="userSpaceOnUse">
<stop/>
<stop offset="1" stop-opacity="0.01"/>
</linearGradient>
<linearGradient id="paint1_linear_1115_2968" x1="74.9286" y1="57.1831" x2="54.7464" y2="116.777" gradientUnits="userSpaceOnUse">
<stop stop-color="#0063FF"/>
<stop offset="1" stop-color="#00042D"/>
</linearGradient>
</defs>
</svg>
